<svg width="160" height="150" viewBox="0 0 160 150" fill="none" xmlns="http://www.w3.org/2000/svg">
<g clip-path="url(#clip0_14881_80734)">
<path d="M122.467 53.8551H53.2373C39.5498 53.8551 43.3679 42.4945 29.8964 42.4945H4.75461C3.48703 42.5134 2.27778 43.0293 1.38813 43.9307C0.498479 44.8321 -0.000141181 46.0467 2.99855e-08 47.312L2.99855e-08 149.126H127.294V58.6007C127.294 57.9714 127.169 57.3484 126.925 56.7679C126.682 56.1874 126.325 55.661 125.876 55.2194C125.427 54.7778 124.894 54.4297 124.309 54.1955C123.724 53.9613 123.098 53.8456 122.467 53.8551V53.8551Z" fill="#3384FF"/>
<path d="M0 149.126H85.5831L34.579 71.7589C25.1268 72.368 16.0829 75.8283 8.64475 81.6815C5.3822 84.2877 2.47588 87.3094 0 90.6693L0 149.126Z" fill="#0065FF"/>
<path d="M50.7157 118.136H23.845V121.012H50.7157V118.136Z" fill="#0065FF"/>
<path d="M66.7087 21.5708H34.0747V24.4469H66.7087V21.5708Z" fill="#6BD5E5"/>
<path d="M86.0872 10.7854H23.845V13.6615H86.0872V10.7854Z" fill="#0065FF"/>
<path d="M88.8969 43.1416H56.2629V46.0177H88.8969V43.1416Z" fill="#0065FF"/>
<path d="M41.4947 0H23.845V2.87611H41.4947V0Z" fill="#99C1FF"/>
<path d="M51.7244 32.3562H34.0747V35.2323H51.7244V32.3562Z" fill="#99C1FF"/>
<path d="M17.7937 0H13.7595V2.87611H17.7937V0Z" fill="#CFD4DB"/>
<path d="M17.7937 10.7854H13.7595V13.6615H17.7937V10.7854Z" fill="#CFD4DB"/>
<path d="M17.7937 21.5708H13.7595V24.4469H17.7937V21.5708Z" fill="#CFD4DB"/>
<path d="M17.7937 32.3562H13.7595V35.2323H17.7937V32.3562Z" fill="#CFD4DB"/>
<path d="M17.7937 42.6383H13.7595V45.5144H17.7937V42.6383Z" fill="#FAFBFC"/>
<path d="M17.7937 53.9989H13.7595V56.875H17.7937V53.9989Z" fill="#FAFBFC"/>
<path d="M17.7937 64.7843H13.7595V67.6604H17.7937V64.7843Z" fill="#FAFBFC"/>
<path d="M17.7937 75.5697H13.7595V78.4458H17.7937V75.5697Z" fill="#FAFBFC"/>
<path d="M17.7937 86.3551H13.7595V89.2312H17.7937V86.3551Z" fill="#FAFBFC"/>
<path d="M17.7937 97.1406H13.7595V100.017H17.7937V97.1406Z" fill="#FAFBFC"/>
<path d="M17.7937 107.926H13.7595V110.802H17.7937V107.926Z" fill="#FAFBFC"/>
<path d="M17.7937 118.711H13.7595V121.588H17.7937V118.711Z" fill="#FAFBFC"/>
<path d="M17.7937 129.497H13.7595V132.373H17.7937V129.497Z" fill="#FAFBFC"/>
<path d="M115.696 53.9989H54.9663V56.875H115.696V53.9989Z" fill="#FDC150"/>
<path d="M48.8428 53.9989H33.2102V56.875H48.8428V53.9989Z" fill="#3DC7DC"/>
<path d="M115.696 63.7058H68.5818V66.5819H115.696V63.7058Z" fill="#0065FF"/>
<path d="M62.4583 63.7058H33.2102V66.5819H62.4583V63.7058Z" fill="#FDC150"/>
<path d="M105.898 75.5697H24.0613V78.4458H105.898V75.5697Z" fill="#3DC7DC"/>
<path d="M85.7271 86.3551H25.2859V89.2312H85.7271V86.3551Z" fill="#3DC7DC"/>
<path d="M70.7428 107.926H23.845V110.802H70.7428V107.926Z" fill="#FAFBFC"/>
<path d="M86.0153 97.1406H59.1445V100.017H86.0153V97.1406Z" fill="#0065FF"/>
<path d="M115.696 32.3562H55.6145V35.2323H115.696V32.3562Z" fill="#FDC150"/>
<path d="M127.294 149.126H0L33.6425 73.7722C33.9151 73.1785 34.3509 72.6741 34.8992 72.3177C35.4475 71.9613 36.0859 71.7676 36.7402 71.7589H156.542C157.114 71.7599 157.678 71.9026 158.181 72.1743C158.685 72.446 159.113 72.8382 159.427 73.3157C159.741 73.7932 159.931 74.3411 159.981 74.9102C160.031 75.4793 159.938 76.0518 159.712 76.5764L127.294 149.126Z" fill="#66A3FF"/>
<path d="M96.4669 128.888C111.796 117.191 118.111 99.7286 110.572 89.886C103.032 80.0433 84.493 81.5473 69.1637 93.2452C53.8344 104.943 47.5195 122.405 55.0591 132.248C62.5986 142.09 81.1376 140.586 96.4669 128.888Z" fill="#3384FF"/>
<path d="M67.285 122.738C67.0374 122.727 66.7963 122.656 66.5828 122.531C66.3692 122.405 66.1898 122.23 66.0603 122.019L59.9369 111.881C59.8467 111.725 59.7881 111.553 59.7646 111.375C59.7411 111.196 59.7531 111.015 59.8 110.841C59.8468 110.668 59.9276 110.505 60.0376 110.362C60.1477 110.22 60.2848 110.101 60.4412 110.011L75.5695 99.8729C75.8848 99.6536 76.2744 99.5683 76.6527 99.6357C77.0309 99.7031 77.3669 99.9178 77.5866 100.232C77.8063 100.547 77.8918 100.936 77.8243 101.313C77.7567 101.691 77.5417 102.026 77.2264 102.246L63.1787 111.593L68.5096 120.581C68.6115 120.739 68.6795 120.917 68.7093 121.103C68.7391 121.289 68.73 121.479 68.6826 121.662C68.6353 121.844 68.5507 122.014 68.4341 122.163C68.3176 122.311 68.1716 122.433 68.0054 122.522C67.7938 122.668 67.5418 122.743 67.285 122.738Z" fill="#0065FF"/>
<path d="M88.6087 122.738C88.3774 122.736 88.1504 122.676 87.9489 122.562C87.7473 122.449 87.5778 122.287 87.456 122.091C87.3462 121.935 87.2683 121.76 87.227 121.574C87.1856 121.388 87.1816 121.196 87.2151 121.009C87.2486 120.822 87.3189 120.643 87.4221 120.483C87.5253 120.323 87.6593 120.185 87.8162 120.077L101.864 110.73L96.533 101.814C96.4297 101.65 96.3607 101.467 96.3301 101.275C96.2996 101.084 96.3081 100.888 96.3552 100.7C96.4023 100.512 96.487 100.336 96.6042 100.181C96.7214 100.026 96.8688 99.8972 97.0373 99.8009C97.3671 99.6326 97.7472 99.5909 98.1057 99.6837C98.4641 99.7765 98.7761 99.9973 98.9824 100.304L105.034 110.443C105.226 110.759 105.289 111.138 105.208 111.5C105.127 111.861 104.91 112.178 104.601 112.384L89.4732 122.45C89.2264 122.642 88.9213 122.743 88.6087 122.738V122.738Z" fill="#0065FF"/>
<path d="M72.1116 127.196C71.799 127.201 71.4939 127.1 71.2471 126.908C71.0873 126.802 70.9518 126.663 70.8494 126.5C70.7471 126.338 70.6801 126.156 70.6529 125.966C70.6257 125.776 70.6389 125.582 70.6917 125.398C70.7444 125.213 70.8355 125.042 70.9589 124.895L92.3547 95.7024C92.4682 95.5513 92.6105 95.4241 92.7733 95.3278C92.9361 95.2316 93.1163 95.1684 93.3036 95.1416C93.4909 95.1149 93.6816 95.1253 93.8649 95.1722C94.0482 95.2191 94.2205 95.3015 94.3718 95.4148C94.5232 95.5281 94.6507 95.6701 94.7471 95.8326C94.8435 95.9951 94.9069 96.1749 94.9337 96.3619C94.9604 96.5488 94.95 96.7392 94.9031 96.9221C94.8561 97.1051 94.7735 97.277 94.66 97.4281L73.2642 126.621C73.1264 126.795 72.9516 126.937 72.7523 127.037C72.5531 127.136 72.3343 127.191 72.1116 127.196V127.196Z" fill="#0065FF"/>
</g>
<defs>
<clipPath id="clip0_14881_80734">
<rect width="160" height="149.126" fill="white"/>
</clipPath>
</defs>
</svg>
