<svg width="225" height="180" viewBox="0 0 225 180" fill="none" xmlns="http://www.w3.org/2000/svg">
<g clip-path="url(#clip0_1961_2378)">
<rect width="224.96" height="180" fill="white" fill-opacity="0.01"/>
<path d="M103.65 147.73L33.31 173.48L0 82.49L69.79 56.94L103.65 147.73Z" fill="url(#paint0_linear_1961_2378)"/>
<path d="M92.2393 136.71L36.3628 157.155L37.05 159.033L92.9265 138.589L92.2393 136.71Z" fill="#FFAB00"/>
<path d="M73.6126 148.235L37.8798 161.309L38.567 163.187L74.2998 150.113L73.6126 148.235Z" fill="#FFAB00"/>
<path d="M90.7199 132.56L34.8434 153.005L35.5306 154.883L91.4071 134.439L90.7199 132.56Z" fill="#C1C7D0"/>
<path d="M26.7009 89.4088L13.3563 94.2913L14.0435 96.1695L27.3881 91.287L26.7009 89.4088Z" fill="#0065FF"/>
<path d="M25.5914 85.1142L11.843 90.146L12.5304 92.0242L26.2788 86.9924L25.5914 85.1142Z" fill="#0065FF"/>
<path d="M73.5373 85.6042L17.257 106.202L32.3489 147.438L88.6291 126.84L73.5373 85.6042Z" fill="#F4F5F7"/>
<path opacity="0.3" d="M69.79 56.94L56.44 61.83V126.35H95.68L69.79 56.94Z" fill="url(#paint1_linear_1961_2378)"/>
<path d="M159.39 21.44V116.35H69.44V0H137.94L159.38 21.44H159.39Z" fill="url(#paint2_linear_1961_2378)"/>
<path opacity="0.5" d="M127.87 116.35H159.39V91.04L145.14 83.54L127.87 116.35Z" fill="#97A0AF"/>
<path d="M108.3 101.337L108.285 103.337L148.715 103.627L148.73 101.627L108.3 101.337Z" fill="#0065FF"/>
<path d="M92.47 101.63H80.11V103.63H92.47V101.63Z" fill="#0065FF"/>
<path d="M100.46 108.36C103.79 108.36 106.49 105.66 106.49 102.33C106.49 98.9997 103.79 96.3 100.46 96.3C97.1297 96.3 94.43 98.9997 94.43 102.33C94.43 105.66 97.1297 108.36 100.46 108.36Z" fill="#253858"/>
<path d="M107.63 43.36L125.94 53.2C127.25 53.9 127.25 55.79 125.94 56.49L107.63 66.33C106.39 67 104.88 66.1 104.88 64.69V45.01C104.88 43.6 106.39 42.7 107.63 43.36Z" fill="#FFAB00"/>
<path d="M113.74 79.96C99.9 79.96 88.63 68.7 88.63 54.85C88.63 41 99.89 29.74 113.74 29.74C127.58 29.74 138.85 41 138.85 54.85C138.85 68.7 127.58 79.96 113.74 79.96ZM113.74 31.75C101 31.75 90.63 42.12 90.63 54.86C90.63 67.6 101 77.97 113.74 77.97C126.48 77.97 136.85 67.6 136.85 54.86C136.85 42.12 126.48 31.75 113.74 31.75Z" fill="#FFAB00"/>
<path d="M137.96 32.99L159.39 21.44L137.96 0V32.99Z" fill="url(#paint3_linear_1961_2378)"/>
<path d="M159.39 21.44H137.96V0L159.39 21.44Z" fill="#FAFBFC"/>
<path d="M190.32 180L124.5 145.36L159.14 79.54L224.96 114.18L190.32 180Z" fill="url(#paint4_linear_1961_2378)"/>
<path d="M188.088 172.755L217.739 116.414L161.397 86.7626L131.746 143.104L188.088 172.755Z" fill="#FAFBFC"/>
<path d="M146.18 132.52L165.83 126.42L171.92 146.06L146.18 132.52Z" fill="#253858"/>
<path d="M155.22 137.27L180.71 129.36L188.63 154.85L155.22 137.27Z" fill="#0065FF"/>
<path d="M172.21 116.72C174.662 116.72 176.65 114.732 176.65 112.28C176.65 109.828 174.662 107.84 172.21 107.84C169.758 107.84 167.77 109.828 167.77 112.28C167.77 114.732 169.758 116.72 172.21 116.72Z" fill="#FFAB00"/>
</g>
<defs>
<linearGradient id="paint0_linear_1961_2378" x1="14.5137" y1="156.54" x2="88.7954" y2="74.048" gradientUnits="userSpaceOnUse">
<stop offset="0.1018" stop-color="#DFE1E5"/>
<stop offset="1" stop-color="#F0F2F5" stop-opacity="0.6"/>
</linearGradient>
<linearGradient id="paint1_linear_1961_2378" x1="76.0586" y1="126.354" x2="76.0586" y2="10" gradientUnits="userSpaceOnUse">
<stop stop-color="#6C798F" stop-opacity="0"/>
<stop offset="1" stop-color="#6C798F"/>
</linearGradient>
<linearGradient id="paint2_linear_1961_2378" x1="62.8362" y1="109.755" x2="155.273" y2="17.3176" gradientUnits="userSpaceOnUse">
<stop offset="0.2636" stop-color="#C1C7D0"/>
<stop offset="0.8949" stop-color="#F0F2F5"/>
</linearGradient>
<linearGradient id="paint3_linear_1961_2378" x1="132.18" y1="27.2126" x2="154.756" y2="4.63711" gradientUnits="userSpaceOnUse">
<stop stop-color="#FAFBFC"/>
<stop offset="0.2786" stop-color="#EFF1F3"/>
<stop offset="0.7688" stop-color="#D1D6DD"/>
<stop offset="1" stop-color="#C1C7D0"/>
</linearGradient>
<linearGradient id="paint4_linear_1961_2378" x1="141.822" y1="162.677" x2="207.639" y2="96.8599" gradientUnits="userSpaceOnUse">
<stop offset="0.3876" stop-color="#C1C7D0"/>
<stop offset="0.7081" stop-color="#C3C9D1" stop-opacity="0.7383"/>
<stop offset="0.8236" stop-color="#CACFD7" stop-opacity="0.6441"/>
<stop offset="0.9058" stop-color="#D5DAE0" stop-opacity="0.5769"/>
<stop offset="0.9719" stop-color="#E6E9ED" stop-opacity="0.5229"/>
<stop offset="1" stop-color="#F0F2F5" stop-opacity="0.5"/>
</linearGradient>
<clipPath id="clip0_1961_2378">
<rect width="224.96" height="180" fill="white"/>
</clipPath>
</defs>
</svg>
