<svg width="249" height="211" viewBox="0 0 249 211" fill="none" xmlns="http://www.w3.org/2000/svg">
<g id="Illustration (Code Inspect)" clip-path="url(#clip0_1961_2763)">
<rect width="248.1" height="210.9" fill="white" fill-opacity="0.01"/>
<g id="Group">
<g id="Group_2">
<path id="Vector" d="M173.2 61.3H22.2001V210.95H173.2V61.3Z" fill="#CFD4DB"/>
<path id="Vector_2" d="M173.3 61.3H64.2001V166.51H173.3V61.3Z" fill="url(#paint0_linear_1961_2763)"/>
<g id="Group_3">
<path id="Vector_3" d="M84.9001 111.5H49.1001V113.5H84.9001V111.5Z" fill="white"/>
<path id="Vector_4" d="M84.9001 99.6H49.1001V101.6H84.9001V99.6Z" fill="white"/>
<path id="Vector_5" d="M68.5001 87.7H49.1001V89.7H68.5001V87.7Z" fill="white"/>
<g id="Group_4">
<path id="Vector_6" d="M42.5001 87.7H38.1001V89.7H42.5001V87.7Z" fill="white"/>
</g>
<g id="Group_5">
<path id="Vector_7" d="M42.5001 99.6H38.1001V101.6H42.5001V99.6Z" fill="white"/>
</g>
<g id="Group_6">
<path id="Vector_8" d="M42.5001 111.5H38.1001V113.5H42.5001V111.5Z" fill="white"/>
</g>
<g id="Group_7">
<path id="Vector_9" d="M42.5001 123.3H38.1001V125.3H42.5001V123.3Z" fill="white"/>
</g>
<g id="Group_8">
<path id="Vector_10" d="M42.5001 135.2H38.1001V137.2H42.5001V135.2Z" fill="white"/>
</g>
<g id="Group_9">
<path id="Vector_11" d="M42.5001 147H38.1001V149H42.5001V147Z" fill="white"/>
</g>
<g id="Group_10">
<path id="Vector_12" d="M42.5001 158.9H38.1001V160.9H42.5001V158.9Z" fill="white"/>
</g>
<g id="Group_11">
<path id="Vector_13" d="M42.5001 170.8H38.1001V172.8H42.5001V170.8Z" fill="white"/>
</g>
<g id="Group_12">
<path id="Vector_14" d="M42.5001 182.6H38.1001V184.6H42.5001V182.6Z" fill="white"/>
</g>
<path id="Vector_15" d="M153.4 147H92.4001V149H153.4V147Z" fill="white"/>
<path id="Vector_16" d="M85.6001 147H49.1001V149H85.6001V147Z" fill="white"/>
<path id="Vector_17" d="M159.2 158.9H107.3V160.9H159.2V158.9Z" fill="white"/>
<g id="Group_13">
<path id="Vector_18" d="M100.6 158.9H68.5001V160.9H100.6V158.9Z" fill="white"/>
</g>
<g id="Group_14">
<path id="Vector_19" d="M139.1 170.8H68.5001V172.8H139.1V170.8Z" fill="white"/>
</g>
<path id="Vector_20" d="M117.1 182.6H87.9001V184.6H117.1V182.6Z" fill="white"/>
<path id="Vector_21" d="M105.1 123.3H71.6001V125.3H105.1V123.3Z" fill="white"/>
<path id="Vector_22" d="M105.1 135.2H71.6001V137.2H105.1V135.2Z" fill="white"/>
</g>
<path id="Vector_23" d="M41.7001 137.5C34.7438 137.488 27.9465 139.58 22.2001 143.5V154.6C25.6925 150.741 30.2513 148.005 35.2995 146.738C40.3477 145.472 45.6582 145.731 50.5587 147.484C55.4593 149.237 59.7295 152.405 62.8288 156.586C65.928 160.768 67.717 165.775 67.9693 170.973C68.2215 176.172 66.9256 181.328 64.2456 185.79C61.5657 190.251 57.6222 193.818 52.9144 196.037C48.2066 198.256 42.9461 199.029 37.799 198.257C32.6519 197.485 27.8496 195.203 24.0001 191.7L22.2001 189.9V201C26.6955 204.021 31.8357 205.948 37.2093 206.626C42.5829 207.305 48.0407 206.716 53.1459 204.907C58.2511 203.098 62.8619 200.119 66.6093 196.208C70.3568 192.297 73.1367 187.564 74.7267 182.386C76.3167 177.208 76.6725 171.731 75.7658 166.391C74.8591 161.051 72.715 155.997 69.505 151.635C66.2951 147.272 62.1085 143.722 57.2803 141.267C52.452 138.813 47.1163 137.523 41.7001 137.5Z" fill="#CFD4DB"/>
</g>
<g id="Group_15">
<path id="Vector_24" d="M232 0H81V149.65H232V0Z" fill="url(#paint1_linear_1961_2763)"/>
<g id="Group_16">
<path id="Vector_25" d="M143.7 50.2H107.9V52.2H143.7V50.2Z" fill="#FFAB00"/>
<path id="Vector_26" d="M143.7 38.3H107.9V40.3H143.7V38.3Z" fill="#0065FF"/>
<path id="Vector_27" d="M127.3 26.4H107.9V28.4H127.3V26.4Z" fill="#E5E8EC"/>
<g id="Group_17">
<path id="Vector_28" d="M101.2 26.4H96.8V28.4H101.2V26.4Z" fill="#E5E8EC"/>
</g>
<g id="Group_18">
<path id="Vector_29" d="M101.2 38.3H96.8V40.3H101.2V38.3Z" fill="#E5E8EC"/>
</g>
<g id="Group_19">
<path id="Vector_30" d="M101.2 50.2H96.8V52.2H101.2V50.2Z" fill="#E5E8EC"/>
</g>
<g id="Group_20">
<path id="Vector_31" d="M101.2 62H96.8V64H101.2V62Z" fill="#E5E8EC"/>
</g>
<g id="Group_21">
<path id="Vector_32" d="M101.2 73.9H96.8V75.9H101.2V73.9Z" fill="#E5E8EC"/>
</g>
<g id="Group_22">
<path id="Vector_33" d="M101.2 85.7H96.8V87.7H101.2V85.7Z" fill="#E5E8EC"/>
</g>
<g id="Group_23">
<path id="Vector_34" d="M101.2 97.6H96.8V99.6H101.2V97.6Z" fill="#E5E8EC"/>
</g>
<g id="Group_24">
<path id="Vector_35" d="M101.2 109.5H96.8V111.5H101.2V109.5Z" fill="#E5E8EC"/>
</g>
<g id="Group_25">
<path id="Vector_36" d="M101.2 121.3H96.8V123.3H101.2V121.3Z" fill="#E5E8EC"/>
</g>
<path id="Vector_37" d="M212.1 85.7H151.1V87.7H212.1V85.7Z" fill="#FFAB00"/>
<path id="Vector_38" d="M144.4 85.7H107.9V87.7H144.4V85.7Z" fill="#E5E8EC"/>
<path id="Vector_39" d="M218 97.6H166.1V99.6H218V97.6Z" fill="#FFAB00"/>
<g id="Group_26">
<path id="Vector_40" d="M159.3 97.6H127.2V99.6H159.3V97.6Z" fill="#0065FF"/>
</g>
<g id="Group_27">
<path id="Vector_41" d="M197.8 109.5H127.2V111.5H197.8V109.5Z" fill="#0065FF"/>
</g>
<path id="Vector_42" d="M175.8 121.3H146.6V123.3H175.8V121.3Z" fill="#E5E8EC"/>
<path id="Vector_43" d="M163.9 62H130.4V64H163.9V62Z" fill="#E5E8EC"/>
<path id="Vector_44" d="M163.9 73.9H130.4V75.9H163.9V73.9Z" fill="#E5E8EC"/>
</g>
<g id="Group_28">
<path id="Vector_45" opacity="0.5" d="M232 66C227.57 60.7584 221.684 56.9483 215.089 55.0515C208.493 53.1546 201.483 53.2563 194.945 55.3437C188.407 57.431 182.635 61.4102 178.358 66.7781C174.082 72.146 171.493 78.6615 170.92 85.5006C170.346 92.3397 171.814 99.1953 175.137 105.2C178.46 111.205 183.489 116.09 189.588 119.237C195.687 122.384 202.582 123.652 209.402 122.88C216.221 122.108 222.659 119.331 227.9 114.9C229.365 113.635 230.735 112.265 232 110.8V66ZM205.5 114.7C200.298 114.7 195.213 113.158 190.888 110.268C186.563 107.378 183.193 103.27 181.202 98.4646C179.211 93.6589 178.691 88.3708 179.705 83.2691C180.72 78.1674 183.225 73.4812 186.903 69.8031C190.581 66.125 195.267 63.6201 200.369 62.6053C205.471 61.5906 210.759 62.1114 215.565 64.102C220.37 66.0925 224.478 69.4635 227.368 73.7885C230.258 78.1135 231.8 83.1983 231.8 88.4C231.8 95.3752 229.029 102.065 224.097 106.997C219.165 111.929 212.475 114.7 205.5 114.7Z" fill="#091E42"/>
</g>
</g>
<path id="Vector_46" d="M14.7673 186.983L-0.0819092 201.832L4.16073 206.075L19.01 191.226L14.7673 186.983Z" fill="#0065FF"/>
<g id="Group_29">
<path id="Vector_47" d="M210.5 113.9C227.345 113.9 241 100.245 241 83.4C241 66.5553 227.345 52.9 210.5 52.9C193.655 52.9 180 66.5553 180 83.4C180 100.245 193.655 113.9 210.5 113.9Z" fill="#344563"/>
<g id="Group_30">
<path id="Vector_48" d="M217.9 86.8H178.7V92.8H217.9V86.8Z" fill="#FDC150"/>
</g>
<g id="Group_31">
<path id="Vector_49" d="M217.9 67.9H182.7V73.9H217.9V67.9Z" fill="#FAFBFC"/>
</g>
<path id="Vector_50" opacity="0.5" d="M241 83.4C241 82.3 241 81.3 240.9 80.2C237.9 71.0934 231.428 63.5382 222.89 59.1756C214.352 54.813 204.437 53.9952 195.3 56.9C190.656 59.5694 186.797 63.4148 184.111 68.0492C181.425 72.6836 180.007 77.9436 180 83.3C181.032 79.7865 182.752 76.5133 185.061 73.6713C187.371 70.8292 190.222 68.4751 193.45 66.7461C196.678 65.0171 200.218 63.9477 203.863 63.6002C207.509 63.2527 211.187 63.6342 214.683 64.7223C218.18 65.8103 221.425 67.5834 224.229 69.938C227.034 72.2926 229.341 75.1818 231.018 78.4372C232.695 81.6926 233.707 85.2491 233.996 88.8996C234.285 92.5501 233.844 96.2215 232.7 99.7C231.735 102.716 230.282 105.554 228.4 108.1C232.302 105.271 235.479 101.558 237.669 97.2646C239.859 92.9712 241.001 88.2198 241 83.4Z" fill="#091E42"/>
<path id="Vector_51" d="M210.5 116.9C203.874 116.9 197.397 114.935 191.888 111.254C186.379 107.573 182.086 102.341 179.55 96.2199C177.015 90.0986 176.351 83.3628 177.644 76.8645C178.936 70.3661 182.127 64.397 186.812 59.7119C191.497 55.0269 197.466 51.8363 203.964 50.5437C210.463 49.2511 217.199 49.9145 223.32 52.45C229.441 54.9856 234.673 59.2794 238.354 64.7884C242.035 70.2975 244 76.7743 244 83.4C244 92.2848 240.471 100.806 234.188 107.088C227.906 113.371 219.385 116.9 210.5 116.9ZM210.5 55.9C205.061 55.9 199.744 57.5129 195.222 60.5346C190.699 63.5563 187.175 67.8512 185.093 72.8762C183.012 77.9012 182.467 83.4305 183.528 88.765C184.59 94.0995 187.209 98.9995 191.055 102.845C194.901 106.691 199.801 109.311 205.135 110.372C210.47 111.433 215.999 110.888 221.024 108.807C226.049 106.725 230.344 103.201 233.365 98.6782C236.387 94.1558 238 88.839 238 83.4C238 76.1066 235.103 69.1118 229.945 63.9546C224.788 58.7973 217.793 55.9 210.5 55.9Z" fill="#0065FF"/>
</g>
<g id="Group_32">
<path id="Vector_52" d="M38.8 197.5C55.6447 197.5 69.3001 183.845 69.3001 167C69.3001 150.155 55.6447 136.5 38.8 136.5C21.9554 136.5 8.30005 150.155 8.30005 167C8.30005 183.845 21.9554 197.5 38.8 197.5Z" fill="#E5E8EC"/>
<path id="Vector_53" d="M53.2 179.9H35.4V185.9H53.2V179.9Z" fill="white"/>
<path id="Vector_54" d="M53.2 161.1H35.4V167.1H53.2V161.1Z" fill="white"/>
<path id="Vector_55" d="M52.4 142.2H35.4V148.2H52.4V142.2Z" fill="white"/>
<path id="Vector_56" opacity="0.2" d="M43.3 136.8C34.6262 137.088 26.3387 140.457 19.9245 146.303C13.5103 152.15 9.38902 160.09 8.30005 168.7C8.63577 174.729 10.7536 180.523 14.3853 185.347C18.0169 190.172 22.9989 193.81 28.7001 195.8C25.5375 193.824 22.8082 191.227 20.677 188.167C18.5458 185.107 17.0569 181.646 16.3001 177.995C15.5434 174.343 15.5345 170.576 16.274 166.921C17.0135 163.266 18.4861 159.798 20.6028 156.728C22.7195 153.658 25.4365 151.048 28.5897 149.057C31.7429 147.066 35.2668 145.735 38.9489 145.143C42.6309 144.552 46.3946 144.713 50.0127 145.616C53.6308 146.52 57.0283 148.147 60 150.4C63.4649 152.744 66.34 155.859 68.4001 159.5C66.8893 153.679 63.7075 148.428 59.2471 144.394C54.7868 140.36 49.2431 137.72 43.3 136.8Z" fill="#091E42"/>
<path id="Vector_57" d="M38.8001 200.5C32.1744 200.5 25.6975 198.535 20.1885 194.854C14.6794 191.173 10.3856 185.941 7.8501 179.82C5.31456 173.699 4.65115 166.963 5.94376 160.464C7.23636 153.966 10.4269 147.997 15.112 143.312C19.797 138.627 25.7662 135.436 32.2645 134.144C38.7629 132.851 45.4986 133.514 51.62 136.05C57.7413 138.586 62.9733 142.879 66.6543 148.388C70.3353 153.897 72.3001 160.374 72.3001 167C72.3001 175.885 68.7706 184.406 62.4881 190.688C56.2057 196.971 47.6848 200.5 38.8001 200.5ZM38.8001 139.5C33.3611 139.5 28.0442 141.113 23.5219 144.135C18.9995 147.156 15.4748 151.451 13.3934 156.476C11.312 161.501 10.7674 167.031 11.8285 172.365C12.8896 177.699 15.5087 182.599 19.3546 186.445C23.2006 190.291 28.1006 192.91 33.4351 193.972C38.7696 195.033 44.2989 194.488 49.3239 192.407C54.3488 190.325 58.6437 186.801 61.6655 182.278C64.6872 177.756 66.3001 172.439 66.3001 167C66.3001 159.707 63.4028 152.712 58.2455 147.555C53.0883 142.397 46.0935 139.5 38.8001 139.5Z" fill="#0065FF"/>
</g>
</g>
<path id="Vector_58" d="M233.286 103.512L229.043 107.755L243.864 122.576L248.107 118.333L233.286 103.512Z" fill="#0065FF"/>
</g>
<defs>
<linearGradient id="paint0_linear_1961_2763" x1="118.72" y1="166.51" x2="118.72" y2="16.86" gradientUnits="userSpaceOnUse">
<stop stop-color="#E5E8EC" stop-opacity="0.1"/>
<stop offset="0.08" stop-color="#E1E4E9" stop-opacity="0.27"/>
<stop offset="0.18" stop-color="#DCE0E5" stop-opacity="0.46"/>
<stop offset="0.29" stop-color="#D8DCE2" stop-opacity="0.63"/>
<stop offset="0.4" stop-color="#D5D9DF" stop-opacity="0.76"/>
<stop offset="0.53" stop-color="#D2D7DD" stop-opacity="0.87"/>
<stop offset="0.66" stop-color="#D0D5DC" stop-opacity="0.94"/>
<stop offset="0.8" stop-color="#CFD4DB" stop-opacity="0.99"/>
<stop offset="1" stop-color="#CFD4DB"/>
</linearGradient>
<linearGradient id="paint1_linear_1961_2763" x1="81.31" y1="149.99" x2="231.63" y2="-0.340001" gradientUnits="userSpaceOnUse">
<stop stop-color="#172B4D"/>
<stop offset="0.58" stop-color="#192D4E"/>
<stop offset="0.78" stop-color="#203354"/>
<stop offset="0.93" stop-color="#2B3D5C"/>
<stop offset="1" stop-color="#344563"/>
</linearGradient>
<clipPath id="clip0_1961_2763">
<rect width="248.1" height="210.9" fill="white"/>
</clipPath>
</defs>
</svg>
