<svg width="160" height="137" viewBox="0 0 160 137" fill="none" xmlns="http://www.w3.org/2000/svg">
<g clip-path="url(#clip0_14870_42269)">
<rect width="160" height="136.01" fill="white" fill-opacity="0.01"/>
<path d="M111.697 39.5325H14.3168V136.042H111.697V39.5325Z" fill="#CFD4DB"/>
<path d="M111.761 39.5325H41.4026V107.383H111.761V39.5325Z" fill="url(#paint0_linear_14870_42269)"/>
<path d="M54.752 71.9065H31.6646V73.1963H54.752V71.9065Z" fill="white"/>
<path d="M54.752 64.2322H31.6646V65.522H54.752V64.2322Z" fill="white"/>
<path d="M44.1756 56.5579H31.6646V57.8477H44.1756V56.5579Z" fill="white"/>
<path d="M27.4082 56.5579H24.5707V57.8477H27.4082V56.5579Z" fill="white"/>
<path d="M27.4082 64.2322H24.5707V65.522H27.4082V64.2322Z" fill="white"/>
<path d="M27.4082 71.9065H24.5707V73.1963H27.4082V71.9065Z" fill="white"/>
<path d="M27.4082 79.5164H24.5707V80.8062H27.4082V79.5164Z" fill="white"/>
<path d="M27.4082 87.1907H24.5707V88.4805H27.4082V87.1907Z" fill="white"/>
<path d="M27.4082 94.8005H24.5707V96.0903H27.4082V94.8005Z" fill="white"/>
<path d="M27.4082 102.475H24.5707V103.765H27.4082V102.475Z" fill="white"/>
<path d="M27.4082 110.149H24.5707V111.439H27.4082V110.149Z" fill="white"/>
<path d="M27.4082 117.759H24.5707V119.049H27.4082V117.759Z" fill="white"/>
<path d="M98.9278 94.8005H59.5889V96.0903H98.9278V94.8005Z" fill="white"/>
<path d="M55.2034 94.8005H31.6646V96.0903H55.2034V94.8005Z" fill="white"/>
<path d="M102.668 102.475H69.1979V103.765H102.668V102.475Z" fill="white"/>
<path d="M64.877 102.475H44.1757V103.765H64.877V102.475Z" fill="white"/>
<path d="M89.7057 110.149H44.1757V111.439H89.7057V110.149Z" fill="white"/>
<path d="M75.5179 117.759H56.6868V119.049H75.5179V117.759Z" fill="white"/>
<path d="M67.7791 79.5164H46.1749V80.8062H67.7791V79.5164Z" fill="white"/>
<path d="M67.7791 87.1907H46.1749V88.4805H67.7791V87.1907Z" fill="white"/>
<path d="M26.8923 88.6739C22.4063 88.6664 18.0227 90.0152 14.3168 92.5433V99.7017C16.569 97.2131 19.509 95.4486 22.7646 94.6317C26.0202 93.8149 29.4449 93.9823 32.6053 95.1129C35.7657 96.2434 38.5195 98.2863 40.5183 100.983C42.517 103.679 43.6707 106.908 43.8334 110.261C43.996 113.613 43.1603 116.939 41.432 119.816C39.7037 122.693 37.1605 124.993 34.1245 126.424C31.0884 127.856 27.6959 128.354 24.3766 127.856C21.0572 127.358 17.9602 125.887 15.4776 123.628L14.3168 122.467V129.625C17.2159 131.574 20.5308 132.816 23.9962 133.254C27.4617 133.691 30.9814 133.311 34.2738 132.145C37.5661 130.978 40.5397 129.057 42.9564 126.535C45.3731 124.013 47.1659 120.96 48.1912 117.621C49.2166 114.282 49.4461 110.749 48.8614 107.306C48.2766 103.862 46.8939 100.603 44.8238 97.7895C42.7537 94.976 40.0537 92.6862 36.94 91.1034C33.8263 89.5205 30.3853 88.6885 26.8923 88.6739Z" fill="#CFD4DB"/>
<path d="M149.617 0H52.2369V96.5095H149.617V0Z" fill="url(#paint1_linear_14870_42269)"/>
<path d="M92.6723 32.374H69.5848V33.6638H92.6723V32.374Z" fill="#FFAB00"/>
<path d="M92.6723 24.6997H69.5848V25.9895H92.6723V24.6997Z" fill="#0065FF"/>
<path d="M82.0959 17.0254H69.5848V18.3152H82.0959V17.0254Z" fill="#E5E8EC"/>
<path d="M65.264 17.0254H62.4264V18.3152H65.264V17.0254Z" fill="#E5E8EC"/>
<path d="M65.264 24.6997H62.4264V25.9895H65.264V24.6997Z" fill="#E5E8EC"/>
<path d="M65.264 32.374H62.4264V33.6638H65.264V32.374Z" fill="#E5E8EC"/>
<path d="M65.264 39.9839H62.4264V41.2737H65.264V39.9839Z" fill="#E5E8EC"/>
<path d="M65.264 47.6582H62.4264V48.948H65.264V47.6582Z" fill="#E5E8EC"/>
<path d="M65.264 55.268H62.4264V56.5578H65.264V55.268Z" fill="#E5E8EC"/>
<path d="M65.264 62.9424H62.4264V64.2322H65.264V62.9424Z" fill="#E5E8EC"/>
<path d="M65.264 70.6167H62.4264V71.9065H65.264V70.6167Z" fill="#E5E8EC"/>
<path d="M65.264 78.2265H62.4264V79.5163H65.264V78.2265Z" fill="#E5E8EC"/>
<path d="M136.784 55.268H97.4446V56.5578H136.784V55.268Z" fill="#FFAB00"/>
<path d="M93.1237 55.268H69.5848V56.5578H93.1237V55.268Z" fill="#E5E8EC"/>
<path d="M140.588 62.9424H107.118V64.2322H140.588V62.9424Z" fill="#FFAB00"/>
<path d="M102.733 62.9424H82.0314V64.2322H102.733V62.9424Z" fill="#0065FF"/>
<path d="M127.561 70.6167H82.0314V71.9065H127.561V70.6167Z" fill="#0065FF"/>
<path d="M113.374 78.2265H94.5425V79.5163H113.374V78.2265Z" fill="#E5E8EC"/>
<path d="M105.699 39.9839H84.0951V41.2737H105.699V39.9839Z" fill="#E5E8EC"/>
<path d="M105.699 47.6582H84.0951V48.948H105.699V47.6582Z" fill="#E5E8EC"/>
<path opacity="0.5" d="M149.617 42.5635C146.76 39.1832 142.964 36.726 138.711 35.5028C134.457 34.2795 129.936 34.3451 125.72 35.6912C121.504 37.0373 117.781 39.6035 115.023 43.0653C112.265 46.5271 110.596 50.7289 110.226 55.1395C109.856 59.55 110.803 63.9712 112.946 67.8438C115.089 71.7165 118.332 74.8668 122.265 76.8962C126.199 78.9256 130.645 79.7431 135.043 79.2452C139.441 78.7474 143.593 76.9565 146.973 74.0991C147.917 73.2834 148.801 72.3997 149.617 71.4551V42.5635ZM132.527 73.9702C129.173 73.9702 125.893 72.9754 123.104 71.1117C120.315 69.2481 118.141 66.5991 116.857 63.4999C115.574 60.4007 115.238 56.9904 115.892 53.7004C116.547 50.4103 118.162 47.3881 120.534 45.0161C122.906 42.6441 125.928 41.0287 129.218 40.3743C132.508 39.7198 135.919 40.0557 139.018 41.3394C142.117 42.6232 144.766 44.7971 146.63 47.5863C148.493 50.3755 149.488 53.6547 149.488 57.0093C149.488 61.5076 147.701 65.8216 144.52 69.0024C141.339 72.1832 137.025 73.9702 132.527 73.9702Z" fill="#091E42"/>
<path d="M9.52344 120.586L-0.0528564 130.162L2.68323 132.898L12.2595 123.322L9.52344 120.586Z" fill="#0065FF"/>
<path d="M135.752 73.4542C146.615 73.4542 155.421 64.6479 155.421 53.7847C155.421 42.9216 146.615 34.1152 135.752 34.1152C124.888 34.1152 116.082 42.9216 116.082 53.7847C116.082 64.6479 124.888 73.4542 135.752 73.4542Z" fill="#344563"/>
<path d="M140.524 55.9774H115.244V59.8468H140.524V55.9774Z" fill="#FDC150"/>
<path d="M140.524 43.7888H117.823V47.6582H140.524V43.7888Z" fill="#FAFBFC"/>
<path opacity="0.5" d="M155.421 53.7847C155.421 53.0753 155.421 52.4304 155.357 51.7211C153.422 45.8482 149.248 40.9759 143.742 38.1624C138.236 35.3489 131.842 34.8216 125.949 36.6949C122.954 38.4164 120.466 40.8962 118.734 43.885C117.001 46.8737 116.087 50.2659 116.082 53.7202C116.747 51.4544 117.857 49.3435 119.346 47.5107C120.835 45.6778 122.674 44.1597 124.756 43.0446C126.838 41.9295 129.121 41.2399 131.472 41.0158C133.822 40.7917 136.194 41.0377 138.449 41.7394C140.704 42.4411 142.797 43.5846 144.606 45.1031C146.414 46.6216 147.903 48.4848 148.984 50.5842C150.065 52.6836 150.718 54.9772 150.904 57.3314C151.091 59.6856 150.806 62.0533 150.068 64.2966C149.446 66.2416 148.509 68.0716 147.295 69.7138C149.812 67.8896 151.861 65.4949 153.273 62.726C154.685 59.9572 155.422 56.893 155.421 53.7847Z" fill="#091E42"/>
<path d="M135.752 75.3889C131.479 75.3889 127.302 74.1219 123.749 71.748C120.196 69.3741 117.427 66 115.792 62.0523C114.157 58.1047 113.729 53.7608 114.563 49.57C115.396 45.3792 117.454 41.5297 120.475 38.5083C123.497 35.4869 127.346 33.4293 131.537 32.5957C135.728 31.7621 140.072 32.1899 144.019 33.8251C147.967 35.4602 151.341 38.2293 153.715 41.7821C156.089 45.3349 157.356 49.5118 157.356 53.7847C157.356 59.5145 155.08 65.0096 151.028 69.0612C146.977 73.1128 141.481 75.3889 135.752 75.3889ZM135.752 36.05C132.244 36.05 128.815 37.0901 125.899 39.0388C122.982 40.9875 120.709 43.7573 119.367 46.9979C118.025 50.2385 117.673 53.8044 118.358 57.2446C119.042 60.6848 120.731 63.8449 123.211 66.3251C125.692 68.8054 128.852 70.4945 132.292 71.1788C135.732 71.8631 139.298 71.5118 142.538 70.1695C145.779 68.8272 148.549 66.5541 150.498 63.6377C152.446 60.7212 153.486 57.2924 153.486 53.7847C153.486 49.0812 151.618 44.5703 148.292 41.2444C144.966 37.9184 140.455 36.05 135.752 36.05Z" fill="#0065FF"/>
<path d="M25.0221 127.368C35.8853 127.368 44.6916 118.562 44.6916 107.698C44.6916 96.8353 35.8853 88.029 25.0221 88.029C14.159 88.029 5.35266 96.8353 5.35266 107.698C5.35266 118.562 14.159 127.368 25.0221 127.368Z" fill="#E5E8EC"/>
<path d="M34.3087 116.018H22.8295V119.887H34.3087V116.018Z" fill="white"/>
<path d="M34.3087 103.894H22.8295V107.763H34.3087V103.894Z" fill="white"/>
<path d="M33.7928 91.705H22.8295V95.5744H33.7928V91.705Z" fill="white"/>
<path opacity="0.2" d="M27.9242 88.2225C22.3304 88.4082 16.9858 90.5811 12.8493 94.3513C8.71275 98.1214 6.05494 103.242 5.35266 108.795C5.56917 112.683 6.93498 116.42 9.27704 119.531C11.6191 122.642 14.832 124.988 18.5086 126.272C16.4691 124.997 14.709 123.323 13.3346 121.349C11.9602 119.376 11 117.144 10.5119 114.789C10.0239 112.434 10.0181 110.005 10.4951 107.647C10.972 105.29 11.9216 103.054 13.2867 101.074C14.6518 99.094 16.404 97.4112 18.4375 96.1271C20.471 94.8431 22.7436 93.9844 25.1181 93.603C27.4927 93.2216 29.9199 93.3254 32.2532 93.908C34.5865 94.4907 36.7776 95.5402 38.6941 96.9931C40.9285 98.505 42.7827 100.514 44.1112 102.862C43.1369 99.1078 41.085 95.7211 38.2085 93.1197C35.332 90.5183 31.7569 88.8158 27.9242 88.2225Z" fill="#091E42"/>
<path d="M25.0222 129.303C20.7493 129.303 16.5723 128.036 13.0195 125.662C9.46673 123.288 6.69767 119.914 5.0625 115.966C3.42733 112.018 2.99949 107.675 3.8331 103.484C4.6667 99.2929 6.7243 95.4434 9.7457 92.422C12.7671 89.4006 16.6166 87.343 20.8074 86.5094C24.9982 85.6758 29.3421 86.1037 33.2897 87.7388C37.2374 89.374 40.6115 92.1431 42.9854 95.6959C45.3593 99.2486 46.6264 103.426 46.6264 107.698C46.6264 113.428 44.3502 118.923 40.2986 122.975C36.2471 127.027 30.752 129.303 25.0222 129.303ZM25.0222 89.9637C21.5146 89.9637 18.0857 91.0038 15.1693 92.9526C12.2528 94.9013 9.97967 97.6711 8.63737 100.912C7.29506 104.152 6.94385 107.718 7.62815 111.158C8.31246 114.599 10.0015 117.759 12.4818 120.239C14.962 122.719 18.1221 124.408 21.5623 125.093C25.0025 125.777 28.5684 125.426 31.809 124.083C35.0496 122.741 37.8194 120.468 39.7681 117.551C41.7168 114.635 42.757 111.206 42.757 107.698C42.757 102.995 40.8885 98.484 37.5626 95.1581C34.2366 91.8322 29.7257 89.9637 25.0222 89.9637Z" fill="#0065FF"/>
<path d="M150.447 66.7551L147.71 69.4912L157.268 79.0493L160.005 76.3132L150.447 66.7551Z" fill="#0065FF"/>
</g>
<defs>
<linearGradient id="paint0_linear_14870_42269" x1="76.5626" y1="107.383" x2="76.5626" y2="10.8731" gradientUnits="userSpaceOnUse">
<stop stop-color="#E5E8EC" stop-opacity="0.1"/>
<stop offset="0.08" stop-color="#E1E4E9" stop-opacity="0.27"/>
<stop offset="0.18" stop-color="#DCE0E5" stop-opacity="0.46"/>
<stop offset="0.29" stop-color="#D8DCE2" stop-opacity="0.63"/>
<stop offset="0.4" stop-color="#D5D9DF" stop-opacity="0.76"/>
<stop offset="0.53" stop-color="#D2D7DD" stop-opacity="0.87"/>
<stop offset="0.66" stop-color="#D0D5DC" stop-opacity="0.94"/>
<stop offset="0.8" stop-color="#CFD4DB" stop-opacity="0.99"/>
<stop offset="1" stop-color="#CFD4DB"/>
</linearGradient>
<linearGradient id="paint1_linear_14870_42269" x1="52.4369" y1="96.7287" x2="149.378" y2="-0.219268" gradientUnits="userSpaceOnUse">
<stop stop-color="#172B4D"/>
<stop offset="0.58" stop-color="#192D4E"/>
<stop offset="0.78" stop-color="#203354"/>
<stop offset="0.93" stop-color="#2B3D5C"/>
<stop offset="1" stop-color="#344563"/>
</linearGradient>
<clipPath id="clip0_14870_42269">
<rect width="160" height="136.01" fill="white"/>
</clipPath>
</defs>
</svg>
