<svg width="206" height="192" viewBox="0 0 206 192" fill="none" xmlns="http://www.w3.org/2000/svg">
<g id="Illustration (Save Code)" clip-path="url(#clip0_1961_2569)">
<rect width="206" height="192" fill="white" fill-opacity="0.01"/>
<g id="Group">
<path id="Vector" d="M157.677 69.3385H68.543C50.9203 69.3385 55.8361 54.7117 38.4917 54.7117H6.12157C4.48955 54.736 2.93264 55.4002 1.78722 56.5608C0.641792 57.7213 -0.000181771 59.2851 3.86063e-08 60.9142V192H163.891V75.4484C163.891 74.6382 163.73 73.836 163.416 73.0887C163.103 72.3413 162.644 71.6636 162.065 71.095C161.487 70.5264 160.801 70.0783 160.048 69.7767C159.294 69.4752 158.488 69.3262 157.677 69.3385Z" fill="#3384FF"/>
<path id="Vector_2" d="M0 192H110.188L44.5205 92.3896C32.3508 93.1738 20.7067 97.6289 11.1301 105.165C6.92959 108.52 3.18769 112.411 0 116.737L0 192Z" fill="#0065FF"/>
</g>
<g id="Group_2">
<path id="Vector_3" d="M65.2967 152.1H30.7006V155.803H65.2967V152.1Z" fill="#0065FF"/>
<path id="Vector_4" d="M85.8874 27.7724H43.8712V31.4754H85.8874V27.7724Z" fill="#6BD5E5"/>
<path id="Vector_5" d="M110.837 13.8862H30.7006V17.5892H110.837V13.8862Z" fill="#0065FF"/>
<path id="Vector_6" d="M114.455 55.5448H72.4386V59.2478H114.455V55.5448Z" fill="#0065FF"/>
<path id="Vector_7" d="M53.4246 0H30.7006V3.70299H53.4246V0Z" fill="#99C1FF"/>
<path id="Vector_8" d="M66.5952 41.6586H43.8712V45.3616H66.5952V41.6586Z" fill="#99C1FF"/>
<path id="Vector_9" d="M22.9095 0H17.7155V3.70299H22.9095V0Z" fill="#CFD4DB"/>
<path id="Vector_10" d="M22.9095 13.8862H17.7155V17.5892H22.9095V13.8862Z" fill="#CFD4DB"/>
<path id="Vector_11" d="M22.9095 27.7724H17.7155V31.4754H22.9095V27.7724Z" fill="#CFD4DB"/>
<path id="Vector_12" d="M22.9095 41.6586H17.7155V45.3616H22.9095V41.6586Z" fill="#CFD4DB"/>
<path id="Vector_13" d="M22.9095 54.8968H17.7155V58.5998H22.9095V54.8968Z" fill="#FAFBFC"/>
<path id="Vector_14" d="M22.9095 69.5236H17.7155V73.2266H22.9095V69.5236Z" fill="#FAFBFC"/>
<path id="Vector_15" d="M22.9095 83.4098H17.7155V87.1128H22.9095V83.4098Z" fill="#FAFBFC"/>
<path id="Vector_16" d="M22.9095 97.2961H17.7155V100.999H22.9095V97.2961Z" fill="#FAFBFC"/>
<path id="Vector_17" d="M22.9095 111.182H17.7155V114.885H22.9095V111.182Z" fill="#FAFBFC"/>
<path id="Vector_18" d="M22.9095 125.068H17.7155V128.771H22.9095V125.068Z" fill="#FAFBFC"/>
<path id="Vector_19" d="M22.9095 138.955H17.7155V142.658H22.9095V138.955Z" fill="#FAFBFC"/>
<path id="Vector_20" d="M22.9095 152.841H17.7155V156.544H22.9095V152.841Z" fill="#FAFBFC"/>
<path id="Vector_21" d="M22.9095 166.727H17.7155V170.43H22.9095V166.727Z" fill="#FAFBFC"/>
<path id="Vector_22" d="M148.958 69.5236H70.769V73.2266H148.958V69.5236Z" fill="#FDC150"/>
<path id="Vector_23" d="M62.8852 69.5236H42.7582V73.2266H62.8852V69.5236Z" fill="#3DC7DC"/>
<path id="Vector_24" d="M148.958 82.0212H88.299V85.7242H148.958V82.0212Z" fill="#0065FF"/>
<path id="Vector_25" d="M80.4151 82.0212H42.7582V85.7242H80.4151V82.0212Z" fill="#FDC150"/>
<path id="Vector_26" d="M136.344 97.2961H30.9789V100.999H136.344V97.2961Z" fill="#3DC7DC"/>
<path id="Vector_27" d="M110.374 111.182H32.5557V114.885H110.374V111.182Z" fill="#3DC7DC"/>
<path id="Vector_28" d="M91.0815 138.955H30.7006V142.658H91.0815V138.955Z" fill="#FAFBFC"/>
<path id="Vector_29" d="M110.745 125.068H76.1486V128.771H110.745V125.068Z" fill="#0065FF"/>
<path id="Vector_30" d="M148.958 41.6586H71.6038V45.3616H148.958V41.6586Z" fill="#FDC150"/>
</g>
<path id="Vector_31" d="M163.891 192H0L43.3147 94.9817C43.6657 94.2172 44.2267 93.5679 44.9327 93.1091C45.6387 92.6502 46.4606 92.4007 47.303 92.3896H201.548C202.285 92.3908 203.01 92.5746 203.658 92.9244C204.306 93.2742 204.857 93.7792 205.262 94.394C205.666 95.0087 205.912 95.7141 205.976 96.4468C206.04 97.1795 205.921 97.9167 205.629 98.5921L163.891 192Z" fill="#66A3FF"/>
<g id="Group_3">
<path id="Vector_32" d="M124.201 165.944C143.938 150.883 152.068 128.401 142.361 115.728C132.654 103.056 108.785 104.992 89.0483 120.053C69.3117 135.114 61.1814 157.597 70.8886 170.269C80.5958 182.941 104.465 181.005 124.201 165.944Z" fill="#3384FF"/>
<path id="Vector_33" d="M86.6295 158.025C86.3108 158.011 86.0004 157.92 85.7254 157.758C85.4505 157.597 85.2195 157.371 85.0527 157.099L77.1689 144.046C77.0527 143.846 76.9773 143.624 76.947 143.395C76.9168 143.165 76.9323 142.932 76.9926 142.708C77.0529 142.485 77.1569 142.275 77.2986 142.092C77.4402 141.908 77.6168 141.754 77.8181 141.639L97.2959 128.586C97.7017 128.304 98.2034 128.194 98.6904 128.281C99.1775 128.368 99.61 128.644 99.8929 129.049C100.176 129.454 100.286 129.955 100.199 130.441C100.112 130.927 99.835 131.359 99.4291 131.641L81.3427 143.676L88.2063 155.248C88.3375 155.452 88.425 155.681 88.4633 155.92C88.5016 156.16 88.49 156.405 88.429 156.639C88.368 156.874 88.2591 157.094 88.109 157.284C87.959 157.475 87.771 157.633 87.557 157.747C87.2847 157.935 86.9602 158.032 86.6295 158.025Z" fill="#0065FF"/>
<path id="Vector_34" d="M114.084 158.025C113.786 158.023 113.494 157.945 113.234 157.799C112.975 157.654 112.756 157.445 112.6 157.192C112.458 156.992 112.358 156.766 112.305 156.527C112.252 156.288 112.246 156.04 112.29 155.799C112.333 155.558 112.423 155.328 112.556 155.122C112.689 154.916 112.861 154.739 113.064 154.6L131.15 142.565L124.286 131.086C124.153 130.875 124.065 130.639 124.025 130.392C123.986 130.146 123.997 129.894 124.057 129.652C124.118 129.41 124.227 129.182 124.378 128.983C124.529 128.784 124.719 128.618 124.936 128.494C125.36 128.277 125.85 128.223 126.311 128.343C126.773 128.462 127.174 128.747 127.44 129.142L135.231 142.195C135.479 142.603 135.559 143.09 135.455 143.556C135.352 144.022 135.072 144.429 134.675 144.694L115.197 157.655C114.879 157.901 114.486 158.032 114.084 158.025Z" fill="#0065FF"/>
<path id="Vector_35" d="M92.8437 163.765C92.4412 163.772 92.0485 163.641 91.7307 163.394C91.525 163.257 91.3505 163.078 91.2187 162.869C91.0869 162.66 91.0007 162.426 90.9657 162.181C90.9307 161.936 90.9477 161.687 91.0156 161.45C91.0835 161.212 91.2007 160.992 91.3597 160.802L118.907 123.217C119.053 123.022 119.236 122.859 119.446 122.735C119.655 122.611 119.887 122.529 120.128 122.495C120.37 122.461 120.615 122.474 120.851 122.534C121.087 122.595 121.309 122.701 121.504 122.847C121.699 122.993 121.863 123.175 121.987 123.385C122.111 123.594 122.193 123.825 122.227 124.066C122.262 124.307 122.248 124.552 122.188 124.787C122.127 125.023 122.021 125.244 121.875 125.439L94.3277 163.024C94.1503 163.249 93.9252 163.432 93.6687 163.56C93.4122 163.688 93.1305 163.758 92.8437 163.765Z" fill="#0065FF"/>
</g>
</g>
<defs>
<clipPath id="clip0_1961_2569">
<rect width="206" height="192" fill="white"/>
</clipPath>
</defs>
</svg>
