<svg width="115" height="30" viewBox="0 0 115 30" fill="none" xmlns="http://www.w3.org/2000/svg">
<path d="M15 30C23.2843 30 30 23.2843 30 15C30 6.71573 23.2843 0 15 0C6.71573 0 0 6.71573 0 15C0 23.2843 6.71573 30 15 30Z" fill="url(#paint0_linear_246_982)"/>
<path d="M15 17C14.1667 17 13.4583 16.7083 12.875 16.125C12.2917 15.5417 12 14.8333 12 14V8C12 7.16667 12.2917 6.45833 12.875 5.875C13.4583 5.29167 14.1667 5 15 5C15.8333 5 16.5417 5.29167 17.125 5.875C17.7083 6.45833 18 7.16667 18 8V14C18 14.8333 17.7083 15.5417 17.125 16.125C16.5417 16.7083 15.8333 17 15 17ZM14 24V20.925C12.2667 20.6917 10.8333 19.9167 9.7 18.6C8.56667 17.2833 8 15.75 8 14H10C10 15.3833 10.4877 16.5627 11.463 17.538C12.4383 18.5133 13.6173 19.0007 15 19C16.3833 19 17.5627 18.5123 18.538 17.537C19.5133 16.5617 20.0007 15.3827 20 14H22C22 15.75 21.4333 17.2833 20.3 18.6C19.1667 19.9167 17.7333 20.6917 16 20.925V24H14Z" fill="#00367B"/>
<path d="M39.728 16.4602H41.5575L42.4773 17.6435L43.3821 18.6974L45.0874 20.8352H43.0788L41.9055 19.3935L41.304 18.5384L39.728 16.4602ZM45.2415 14.9091C45.2415 16.0194 45.031 16.964 44.6101 17.7429C44.1925 18.5218 43.6224 19.1167 42.8999 19.5277C42.1806 19.9354 41.3719 20.1392 40.4737 20.1392C39.5689 20.1392 38.7569 19.9337 38.0376 19.5227C37.3184 19.1117 36.75 18.5168 36.3324 17.7379C35.9148 16.959 35.706 16.0161 35.706 14.9091C35.706 13.7988 35.9148 12.8542 36.3324 12.0753C36.75 11.2964 37.3184 10.7031 38.0376 10.2955C38.7569 9.88447 39.5689 9.67898 40.4737 9.67898C41.3719 9.67898 42.1806 9.88447 42.8999 10.2955C43.6224 10.7031 44.1925 11.2964 44.6101 12.0753C45.031 12.8542 45.2415 13.7988 45.2415 14.9091ZM43.0589 14.9091C43.0589 14.1899 42.9512 13.5833 42.7358 13.0895C42.5237 12.5956 42.2237 12.2211 41.8359 11.9659C41.4482 11.7107 40.9941 11.5831 40.4737 11.5831C39.9534 11.5831 39.4993 11.7107 39.1115 11.9659C38.7237 12.2211 38.4221 12.5956 38.2067 13.0895C37.9946 13.5833 37.8885 14.1899 37.8885 14.9091C37.8885 15.6283 37.9946 16.2348 38.2067 16.7287C38.4221 17.2225 38.7237 17.5971 39.1115 17.8523C39.4993 18.1075 39.9534 18.2351 40.4737 18.2351C40.9941 18.2351 41.4482 18.1075 41.8359 17.8523C42.2237 17.5971 42.5237 17.2225 42.7358 16.7287C42.9512 16.2348 43.0589 15.6283 43.0589 14.9091ZM51.6934 16.7486V12.3636H53.8113V20H51.7779V18.6129H51.6983C51.526 19.0604 51.2393 19.42 50.8382 19.6918C50.4405 19.9635 49.955 20.0994 49.3816 20.0994C48.8712 20.0994 48.4221 19.9834 48.0343 19.7514C47.6465 19.5194 47.3432 19.1896 47.1245 18.7621C46.909 18.3345 46.7997 17.8224 46.7963 17.2259V12.3636H48.9142V16.848C48.9176 17.2988 49.0385 17.6551 49.2772 17.9169C49.5158 18.1787 49.8356 18.3097 50.2367 18.3097C50.4919 18.3097 50.7305 18.2517 50.9526 18.1357C51.1747 18.0163 51.3536 17.8407 51.4895 17.6087C51.6287 17.3767 51.6967 17.09 51.6934 16.7486ZM57.6829 20.1442C57.1957 20.1442 56.7615 20.0597 56.3803 19.8906C55.9992 19.7183 55.6976 19.4647 55.4755 19.13C55.2567 18.7919 55.1474 18.371 55.1474 17.8672C55.1474 17.4429 55.2253 17.0866 55.381 16.7983C55.5368 16.5099 55.7489 16.2779 56.0174 16.1023C56.2859 15.9266 56.5908 15.794 56.9322 15.7045C57.2769 15.6151 57.6381 15.5521 58.016 15.5156C58.4601 15.4692 58.8181 15.4261 59.0898 15.3864C59.3616 15.3433 59.5588 15.2803 59.6815 15.1974C59.8041 15.1146 59.8654 14.992 59.8654 14.8295V14.7997C59.8654 14.4848 59.766 14.2412 59.5671 14.0689C59.3716 13.8965 59.0932 13.8104 58.7319 13.8104C58.3507 13.8104 58.0475 13.8949 57.8221 14.0639C57.5967 14.2296 57.4476 14.4384 57.3746 14.6903L55.4158 14.5312C55.5153 14.0672 55.7108 13.6662 56.0025 13.3281C56.2942 12.9867 56.6703 12.7249 57.131 12.5426C57.5951 12.357 58.132 12.2642 58.7418 12.2642C59.1661 12.2642 59.5721 12.3139 59.9599 12.4134C60.351 12.5128 60.6973 12.6669 60.9989 12.8757C61.3039 13.0845 61.5442 13.353 61.7198 13.6811C61.8955 14.0059 61.9833 14.3954 61.9833 14.8494V20H59.9748V18.9411H59.9151C59.7925 19.1797 59.6284 19.3902 59.4229 19.5724C59.2174 19.7514 58.9705 19.8923 58.6822 19.995C58.3938 20.0945 58.0607 20.1442 57.6829 20.1442ZM58.2894 18.6825C58.601 18.6825 58.8761 18.6212 59.1147 18.4986C59.3533 18.3726 59.5406 18.2036 59.6765 17.9915C59.8124 17.7794 59.8803 17.5391 59.8803 17.2706V16.4602C59.814 16.5033 59.7229 16.5431 59.6069 16.5795C59.4942 16.6127 59.3666 16.6442 59.2241 16.674C59.0816 16.7005 58.939 16.7254 58.7965 16.7486C58.654 16.7685 58.5247 16.7867 58.4087 16.8033C58.1602 16.8397 57.9431 16.8977 57.7575 16.9773C57.5719 17.0568 57.4277 17.1645 57.3249 17.3004C57.2222 17.433 57.1708 17.5987 57.1708 17.7976C57.1708 18.0859 57.2752 18.3063 57.484 18.4588C57.6961 18.608 57.9646 18.6825 58.2894 18.6825ZM65.7443 9.81818V20H63.6264V9.81818H65.7443ZM73.0041 12.7464C72.9643 12.3454 72.7936 12.0339 72.492 11.8118C72.1904 11.5897 71.7811 11.4787 71.264 11.4787C70.9127 11.4787 70.6161 11.5284 70.3741 11.6278C70.1322 11.724 69.9466 11.8582 69.8173 12.0305C69.6913 12.2029 69.6284 12.3984 69.6284 12.6172C69.6217 12.7995 69.6599 12.9586 69.7427 13.0945C69.8289 13.2304 69.9466 13.348 70.0957 13.4474C70.2449 13.5436 70.4172 13.6281 70.6127 13.701C70.8083 13.7706 71.0171 13.8303 71.2392 13.88L72.1539 14.0987C72.5981 14.1982 73.0057 14.3307 73.377 14.4964C73.7482 14.6622 74.0697 14.866 74.3414 15.108C74.6132 15.3499 74.8237 15.6349 74.9728 15.9631C75.1253 16.2912 75.2032 16.6674 75.2065 17.0916C75.2032 17.7147 75.0441 18.255 74.7292 18.7124C74.4177 19.1664 73.9669 19.5194 73.377 19.7713C72.7903 20.0199 72.0827 20.1442 71.2541 20.1442C70.4321 20.1442 69.7162 20.0182 69.1064 19.7663C68.4998 19.5144 68.0259 19.1416 67.6845 18.6477C67.3464 18.1506 67.1691 17.5357 67.1525 16.8033H69.2356C69.2588 17.1446 69.3566 17.4297 69.5289 17.6584C69.7046 17.8838 69.9383 18.0545 70.2299 18.1705C70.5249 18.2831 70.858 18.3395 71.2292 18.3395C71.5938 18.3395 71.9103 18.2865 72.1788 18.1804C72.4506 18.0743 72.661 17.9268 72.8102 17.7379C72.9593 17.549 73.0339 17.3319 73.0339 17.0866C73.0339 16.858 72.966 16.6657 72.8301 16.5099C72.6975 16.3542 72.502 16.2216 72.2434 16.1122C71.9882 16.0028 71.675 15.9034 71.3038 15.8139L70.1951 15.5355C69.3367 15.3267 68.6589 15.0002 68.1618 14.5561C67.6646 14.112 67.4177 13.5137 67.421 12.7614C67.4177 12.1449 67.5817 11.6063 67.9132 11.1456C68.2479 10.6849 68.707 10.3253 69.2903 10.0668C69.8736 9.80824 70.5365 9.67898 71.2789 9.67898C72.0346 9.67898 72.6942 9.80824 73.2576 10.0668C73.8244 10.3253 74.2652 10.6849 74.5801 11.1456C74.8949 11.6063 75.0574 12.1399 75.0673 12.7464H73.0041ZM80.0948 20.1491C79.3093 20.1491 78.6332 19.9901 78.0664 19.6719C77.503 19.3504 77.0688 18.8963 76.7638 18.3097C76.4589 17.7197 76.3065 17.022 76.3065 16.2166C76.3065 15.4311 76.4589 14.7417 76.7638 14.1484C77.0688 13.5552 77.498 13.0928 78.0515 12.7614C78.6083 12.4299 79.2612 12.2642 80.0103 12.2642C80.5141 12.2642 80.9831 12.3454 81.4173 12.5078C81.8548 12.6669 82.2359 12.9072 82.5607 13.2287C82.8888 13.5502 83.1441 13.9545 83.3263 14.4418C83.5086 14.9257 83.5998 15.4924 83.5998 16.142V16.7237H77.1516V15.4112H81.6062C81.6062 15.1063 81.5399 14.8362 81.4073 14.6009C81.2747 14.3655 81.0908 14.1816 80.8555 14.049C80.6235 13.9131 80.3533 13.8452 80.0451 13.8452C79.7236 13.8452 79.4386 13.9197 79.19 14.0689C78.9447 14.2147 78.7525 14.4119 78.6133 14.6605C78.4741 14.9058 78.4028 15.1792 78.3995 15.4808V16.7287C78.3995 17.1065 78.4691 17.433 78.6083 17.7081C78.7508 17.9832 78.9513 18.1953 79.2099 18.3445C79.4684 18.4936 79.775 18.5682 80.1296 18.5682C80.3649 18.5682 80.5804 18.535 80.7759 18.4688C80.9715 18.4025 81.1388 18.303 81.2781 18.1705C81.4173 18.0379 81.5233 17.8755 81.5962 17.6832L83.555 17.8125C83.4556 18.2831 83.2518 18.6941 82.9435 19.0455C82.6386 19.3935 82.2442 19.6652 81.7603 19.8608C81.2797 20.053 80.7246 20.1491 80.0948 20.1491ZM87.1594 20.1442C86.6722 20.1442 86.238 20.0597 85.8569 19.8906C85.4757 19.7183 85.1741 19.4647 84.9521 19.13C84.7333 18.7919 84.6239 18.371 84.6239 17.8672C84.6239 17.4429 84.7018 17.0866 84.8576 16.7983C85.0134 16.5099 85.2255 16.2779 85.494 16.1023C85.7624 15.9266 86.0674 15.794 86.4087 15.7045C86.7534 15.6151 87.1147 15.5521 87.4925 15.5156C87.9367 15.4692 88.2946 15.4261 88.5664 15.3864C88.8382 15.3433 89.0354 15.2803 89.158 15.1974C89.2807 15.1146 89.342 14.992 89.342 14.8295V14.7997C89.342 14.4848 89.2425 14.2412 89.0437 14.0689C88.8481 13.8965 88.5697 13.8104 88.2085 13.8104C87.8273 13.8104 87.524 13.8949 87.2987 14.0639C87.0733 14.2296 86.9241 14.4384 86.8512 14.6903L84.8924 14.5312C84.9918 14.0672 85.1874 13.6662 85.479 13.3281C85.7707 12.9867 86.1469 12.7249 86.6076 12.5426C87.0716 12.357 87.6085 12.2642 88.2184 12.2642C88.6426 12.2642 89.0487 12.3139 89.4364 12.4134C89.8275 12.5128 90.1739 12.6669 90.4755 12.8757C90.7804 13.0845 91.0207 13.353 91.1964 13.6811C91.372 14.0059 91.4599 14.3954 91.4599 14.8494V20H89.4513V18.9411H89.3917C89.2691 19.1797 89.105 19.3902 88.8995 19.5724C88.694 19.7514 88.4471 19.8923 88.1587 19.995C87.8704 20.0945 87.5373 20.1442 87.1594 20.1442ZM87.766 18.6825C88.0775 18.6825 88.3526 18.6212 88.5913 18.4986C88.8299 18.3726 89.0172 18.2036 89.1531 17.9915C89.2889 17.7794 89.3569 17.5391 89.3569 17.2706V16.4602C89.2906 16.5033 89.1995 16.5431 89.0835 16.5795C88.9708 16.6127 88.8432 16.6442 88.7006 16.674C88.5581 16.7005 88.4156 16.7254 88.2731 16.7486C88.1306 16.7685 88.0013 16.7867 87.8853 16.8033C87.6367 16.8397 87.4196 16.8977 87.234 16.9773C87.0484 17.0568 86.9042 17.1645 86.8015 17.3004C86.6987 17.433 86.6474 17.5987 86.6474 17.7976C86.6474 18.0859 86.7518 18.3063 86.9606 18.4588C87.1727 18.608 87.4412 18.6825 87.766 18.6825ZM93.103 20V12.3636H95.1562V13.696H95.2358C95.375 13.2221 95.6087 12.8641 95.9368 12.6222C96.2649 12.3769 96.6428 12.2543 97.0703 12.2543C97.1764 12.2543 97.2907 12.2609 97.4134 12.2741C97.536 12.2874 97.6437 12.3056 97.7365 12.3288V14.2081C97.6371 14.1783 97.4995 14.1518 97.3239 14.1286C97.1482 14.1054 96.9875 14.0938 96.8416 14.0938C96.5301 14.0938 96.2517 14.1617 96.0064 14.2976C95.7644 14.4302 95.5722 14.6158 95.4297 14.8544C95.2905 15.093 95.2209 15.3681 95.2209 15.6797V20H93.103ZM101.926 20.1491C101.144 20.1491 100.471 19.9834 99.9078 19.652C99.3477 19.3172 98.9168 18.8532 98.6152 18.2599C98.3169 17.6667 98.1678 16.9839 98.1678 16.2116C98.1678 15.4295 98.3186 14.7434 98.6202 14.1534C98.9251 13.5601 99.3577 13.0978 99.9178 12.7663C100.478 12.4316 101.144 12.2642 101.916 12.2642C102.583 12.2642 103.166 12.3852 103.666 12.6271C104.167 12.8691 104.563 13.2088 104.855 13.6463C105.146 14.0838 105.307 14.5975 105.337 15.1875H103.338C103.282 14.8063 103.133 14.4998 102.891 14.2678C102.652 14.0324 102.339 13.9148 101.951 13.9148C101.623 13.9148 101.336 14.0043 101.091 14.1832C100.849 14.3589 100.66 14.6158 100.524 14.9538C100.388 15.2919 100.32 15.7012 100.32 16.1818C100.32 16.669 100.387 17.0833 100.519 17.4247C100.655 17.7661 100.846 18.0263 101.091 18.2053C101.336 18.3842 101.623 18.4737 101.951 18.4737C102.193 18.4737 102.41 18.424 102.602 18.3246C102.798 18.2251 102.959 18.081 103.085 17.892C103.214 17.6998 103.298 17.4695 103.338 17.201H105.337C105.304 17.7843 105.145 18.2981 104.86 18.7422C104.578 19.183 104.188 19.5277 103.691 19.7763C103.194 20.0249 102.606 20.1491 101.926 20.1491ZM108.811 15.5852V20H106.693V9.81818H108.751V13.7109H108.841C109.013 13.2602 109.291 12.9072 109.676 12.652C110.06 12.3935 110.542 12.2642 111.123 12.2642C111.653 12.2642 112.115 12.3802 112.51 12.6122C112.907 12.8409 113.216 13.1707 113.434 13.6016C113.656 14.0291 113.766 14.5412 113.762 15.1378V20H111.645V15.5156C111.648 15.045 111.529 14.6787 111.287 14.4169C111.048 14.1551 110.713 14.0241 110.282 14.0241C109.994 14.0241 109.739 14.0855 109.517 14.2081C109.298 14.3307 109.126 14.5097 109 14.745C108.877 14.977 108.814 15.2571 108.811 15.5852Z" fill="white"/>
<defs>
<linearGradient id="paint0_linear_246_982" x1="15" y1="0" x2="15" y2="30" gradientUnits="userSpaceOnUse">
<stop stop-color="white"/>
<stop offset="1" stop-color="white"/>
</linearGradient>
</defs>
</svg>
