<svg width="109" height="30" viewBox="0 0 109 30" fill="none" xmlns="http://www.w3.org/2000/svg">
<path d="M35.4972 11.593V9.81818H43.8594V11.593H40.7422V20H38.6143V11.593H35.4972ZM44.4038 20V12.3636H46.457V13.696H46.5366C46.6758 13.2221 46.9094 12.8641 47.2376 12.6222C47.5657 12.3769 47.9435 12.2543 48.3711 12.2543C48.4772 12.2543 48.5915 12.2609 48.7141 12.2741C48.8368 12.2874 48.9445 12.3056 49.0373 12.3288V14.2081C48.9379 14.1783 48.8003 14.1518 48.6246 14.1286C48.449 14.1054 48.2882 14.0938 48.1424 14.0938C47.8308 14.0938 47.5524 14.1617 47.3072 14.2976C47.0652 14.4302 46.873 14.6158 46.7305 14.8544C46.5913 15.093 46.5217 15.3681 46.5217 15.6797V20H44.4038ZM52.0911 20.1442C51.6039 20.1442 51.1697 20.0597 50.7885 19.8906C50.4074 19.7183 50.1058 19.4647 49.8837 19.13C49.665 18.7919 49.5556 18.371 49.5556 17.8672C49.5556 17.4429 49.6335 17.0866 49.7892 16.7983C49.945 16.5099 50.1571 16.2779 50.4256 16.1023C50.6941 15.9266 50.999 15.794 51.3404 15.7045C51.6851 15.6151 52.0463 15.5521 52.4242 15.5156C52.8683 15.4692 53.2263 15.4261 53.498 15.3864C53.7698 15.3433 53.967 15.2803 54.0897 15.1974C54.2123 15.1146 54.2736 14.992 54.2736 14.8295V14.7997C54.2736 14.4848 54.1742 14.2412 53.9753 14.0689C53.7798 13.8965 53.5014 13.8104 53.1401 13.8104C52.7589 13.8104 52.4557 13.8949 52.2303 14.0639C52.0049 14.2296 51.8558 14.4384 51.7828 14.6903L49.824 14.5312C49.9235 14.0672 50.119 13.6662 50.4107 13.3281C50.7024 12.9867 51.0785 12.7249 51.5392 12.5426C52.0033 12.357 52.5402 12.2642 53.15 12.2642C53.5743 12.2642 53.9803 12.3139 54.3681 12.4134C54.7592 12.5128 55.1055 12.6669 55.4071 12.8757C55.7121 13.0845 55.9524 13.353 56.128 13.6811C56.3037 14.0059 56.3915 14.3954 56.3915 14.8494V20H54.383V18.9411H54.3233C54.2007 19.1797 54.0366 19.3902 53.8311 19.5724C53.6257 19.7514 53.3787 19.8923 53.0904 19.995C52.802 20.0945 52.4689 20.1442 52.0911 20.1442ZM52.6976 18.6825C53.0092 18.6825 53.2843 18.6212 53.5229 18.4986C53.7615 18.3726 53.9488 18.2036 54.0847 17.9915C54.2206 17.7794 54.2885 17.5391 54.2885 17.2706V16.4602C54.2222 16.5033 54.1311 16.5431 54.0151 16.5795C53.9024 16.6127 53.7748 16.6442 53.6323 16.674C53.4898 16.7005 53.3472 16.7254 53.2047 16.7486C53.0622 16.7685 52.9329 16.7867 52.8169 16.8033C52.5684 16.8397 52.3513 16.8977 52.1657 16.9773C51.9801 17.0568 51.8359 17.1645 51.7331 17.3004C51.6304 17.433 51.579 17.5987 51.579 17.7976C51.579 18.0859 51.6834 18.3063 51.8922 18.4588C52.1043 18.608 52.3728 18.6825 52.6976 18.6825ZM60.1525 15.5852V20H58.0346V12.3636H60.0531V13.7109H60.1426C60.3116 13.2668 60.595 12.9155 60.9927 12.657C61.3904 12.3951 61.8727 12.2642 62.4395 12.2642C62.9698 12.2642 63.4321 12.3802 63.8265 12.6122C64.2209 12.8442 64.5275 13.1757 64.7463 13.6065C64.965 14.0341 65.0744 14.5445 65.0744 15.1378V20H62.9565V15.5156C62.9598 15.0483 62.8405 14.6837 62.5985 14.4219C62.3566 14.1567 62.0235 14.0241 61.5993 14.0241C61.3142 14.0241 61.0623 14.0855 60.8436 14.2081C60.6281 14.3307 60.4591 14.5097 60.3365 14.745C60.2172 14.977 60.1558 15.2571 60.1525 15.5852ZM73.0973 14.5412L71.1584 14.6605C71.1252 14.4948 71.054 14.3456 70.9446 14.2131C70.8352 14.0772 70.6911 13.9695 70.5121 13.8899C70.3364 13.8071 70.1259 13.7656 69.8807 13.7656C69.5526 13.7656 69.2758 13.8352 69.0504 13.9744C68.825 14.1103 68.7124 14.2926 68.7124 14.5213C68.7124 14.7036 68.7853 14.8577 68.9311 14.9837C69.0769 15.1096 69.3272 15.2107 69.6818 15.2869L71.0639 15.5653C71.8063 15.7178 72.3598 15.9631 72.7244 16.3011C73.089 16.6392 73.2713 17.0833 73.2713 17.6335C73.2713 18.134 73.1238 18.5732 72.8288 18.951C72.5372 19.3288 72.1361 19.6238 71.6257 19.8359C71.1186 20.0447 70.5336 20.1491 69.8707 20.1491C68.8598 20.1491 68.0545 19.9387 67.4545 19.5178C66.858 19.0935 66.5083 18.5168 66.4055 17.7876L68.4886 17.6783C68.5516 17.9865 68.7041 18.2218 68.946 18.3842C69.188 18.5433 69.4979 18.6229 69.8757 18.6229C70.2469 18.6229 70.5452 18.5516 70.7706 18.4091C70.9993 18.2633 71.1153 18.076 71.1186 17.8473C71.1153 17.6551 71.0341 17.4976 70.875 17.375C70.7159 17.2491 70.4706 17.1529 70.1392 17.0866L68.8168 16.8232C68.071 16.674 67.5159 16.4155 67.1513 16.0476C66.79 15.6797 66.6094 15.2107 66.6094 14.6406C66.6094 14.1501 66.742 13.7275 67.0071 13.3729C67.2756 13.0182 67.6518 12.7448 68.1357 12.5526C68.6229 12.3603 69.1929 12.2642 69.8459 12.2642C70.8104 12.2642 71.5694 12.468 72.1229 12.8757C72.6797 13.2834 73.0045 13.8385 73.0973 14.5412ZM78.0552 20.1491C77.273 20.1491 76.6002 19.9834 76.0368 19.652C75.4766 19.3172 75.0458 18.8532 74.7441 18.2599C74.4458 17.6667 74.2967 16.9839 74.2967 16.2116C74.2967 15.4295 74.4475 14.7434 74.7491 14.1534C75.054 13.5601 75.4866 13.0978 76.0467 12.7663C76.6068 12.4316 77.273 12.2642 78.0453 12.2642C78.7115 12.2642 79.2948 12.3852 79.7953 12.6271C80.2958 12.8691 80.6918 13.2088 80.9835 13.6463C81.2752 14.0838 81.4359 14.5975 81.4657 15.1875H79.4672C79.4108 14.8063 79.2617 14.4998 79.0197 14.2678C78.7811 14.0324 78.4679 13.9148 78.0801 13.9148C77.752 13.9148 77.4653 14.0043 77.22 14.1832C76.978 14.3589 76.7891 14.6158 76.6532 14.9538C76.5173 15.2919 76.4494 15.7012 76.4494 16.1818C76.4494 16.669 76.5157 17.0833 76.6483 17.4247C76.7842 17.7661 76.9747 18.0263 77.22 18.2053C77.4653 18.3842 77.752 18.4737 78.0801 18.4737C78.322 18.4737 78.5391 18.424 78.7314 18.3246C78.9269 18.2251 79.0877 18.081 79.2136 17.892C79.3429 17.6998 79.4274 17.4695 79.4672 17.201H81.4657C81.4326 17.7843 81.2735 18.2981 80.9885 18.7422C80.7067 19.183 80.3173 19.5277 79.8201 19.7763C79.323 20.0249 78.7347 20.1491 78.0552 20.1491ZM82.8217 20V12.3636H84.875V13.696H84.9545C85.0938 13.2221 85.3274 12.8641 85.6555 12.6222C85.9837 12.3769 86.3615 12.2543 86.7891 12.2543C86.8951 12.2543 87.0095 12.2609 87.1321 12.2741C87.2547 12.2874 87.3625 12.3056 87.4553 12.3288V14.2081C87.3558 14.1783 87.2183 14.1518 87.0426 14.1286C86.867 14.1054 86.7062 14.0938 86.5604 14.0938C86.2488 14.0938 85.9704 14.1617 85.7251 14.2976C85.4832 14.4302 85.291 14.6158 85.1484 14.8544C85.0092 15.093 84.9396 15.3681 84.9396 15.6797V20H82.8217ZM88.5502 20V12.3636H90.6681V20H88.5502ZM89.6142 11.3793C89.2993 11.3793 89.0292 11.2749 88.8038 11.0661C88.5817 10.8539 88.4707 10.6004 88.4707 10.3054C88.4707 10.0137 88.5817 9.76349 88.8038 9.55469C89.0292 9.34257 89.2993 9.23651 89.6142 9.23651C89.929 9.23651 90.1975 9.34257 90.4196 9.55469C90.6449 9.76349 90.7576 10.0137 90.7576 10.3054C90.7576 10.6004 90.6449 10.8539 90.4196 11.0661C90.1975 11.2749 89.929 11.3793 89.6142 11.3793ZM92.4045 20V9.81818H94.5224V13.6463H94.587C94.6798 13.4408 94.814 13.232 94.9897 13.0199C95.1687 12.8045 95.4007 12.6255 95.6857 12.483C95.9741 12.3371 96.332 12.2642 96.7596 12.2642C97.3164 12.2642 97.8301 12.41 98.3008 12.7017C98.7714 12.9901 99.1476 13.4259 99.4293 14.0092C99.7111 14.5893 99.8519 15.3168 99.8519 16.1918C99.8519 17.0436 99.7144 17.7628 99.4393 18.3494C99.1675 18.9328 98.7963 19.3752 98.3256 19.6768C97.8583 19.9751 97.3346 20.1243 96.7546 20.1243C96.3436 20.1243 95.994 20.0563 95.7056 19.9205C95.4206 19.7846 95.1869 19.6139 95.0046 19.4084C94.8223 19.1996 94.6831 18.9891 94.587 18.777H94.4925V20H92.4045ZM94.4776 16.1818C94.4776 16.6359 94.5406 17.032 94.6665 17.37C94.7925 17.7081 94.9748 17.9716 95.2134 18.1605C95.4521 18.3461 95.7421 18.4389 96.0835 18.4389C96.4281 18.4389 96.7198 18.3445 96.9585 18.1555C97.1971 17.9633 97.3777 17.6982 97.5004 17.3601C97.6263 17.0187 97.6893 16.6259 97.6893 16.1818C97.6893 15.741 97.628 15.3532 97.5053 15.0185C97.3827 14.6837 97.2021 14.4219 96.9634 14.233C96.7248 14.044 96.4315 13.9496 96.0835 13.9496C95.7388 13.9496 95.4471 14.0407 95.2085 14.223C94.9731 14.4053 94.7925 14.6638 94.6665 14.9986C94.5406 15.3333 94.4776 15.7277 94.4776 16.1818ZM104.745 20.1491C103.96 20.1491 103.284 19.9901 102.717 19.6719C102.153 19.3504 101.719 18.8963 101.414 18.3097C101.109 17.7197 100.957 17.022 100.957 16.2166C100.957 15.4311 101.109 14.7417 101.414 14.1484C101.719 13.5552 102.148 13.0928 102.702 12.7614C103.259 12.4299 103.912 12.2642 104.661 12.2642C105.164 12.2642 105.633 12.3454 106.068 12.5078C106.505 12.6669 106.886 12.9072 107.211 13.2287C107.539 13.5502 107.794 13.9545 107.977 14.4418C108.159 14.9257 108.25 15.4924 108.25 16.142V16.7237H101.802V15.4112H106.257C106.257 15.1063 106.19 14.8362 106.058 14.6009C105.925 14.3655 105.741 14.1816 105.506 14.049C105.274 13.9131 105.004 13.8452 104.695 13.8452C104.374 13.8452 104.089 13.9197 103.84 14.0689C103.595 14.2147 103.403 14.4119 103.264 14.6605C103.124 14.9058 103.053 15.1792 103.05 15.4808V16.7287C103.05 17.1065 103.119 17.433 103.259 17.7081C103.401 17.9832 103.602 18.1953 103.86 18.3445C104.119 18.4936 104.425 18.5682 104.78 18.5682C105.015 18.5682 105.231 18.535 105.426 18.4688C105.622 18.4025 105.789 18.303 105.928 18.1705C106.068 18.0379 106.174 17.8755 106.247 17.6832L108.205 17.8125C108.106 18.2831 107.902 18.6941 107.594 19.0455C107.289 19.3935 106.895 19.6652 106.411 19.8608C105.93 20.053 105.375 20.1491 104.745 20.1491Z" fill="black"/>
<circle cx="15" cy="15" r="15" fill="url(#paint0_linear_2308_1400)"/>
<path d="M15 17C14.1667 17 13.4583 16.7083 12.875 16.125C12.2917 15.5417 12 14.8333 12 14V8C12 7.16667 12.2917 6.45833 12.875 5.875C13.4583 5.29167 14.1667 5 15 5C15.8333 5 16.5417 5.29167 17.125 5.875C17.7083 6.45833 18 7.16667 18 8V14C18 14.8333 17.7083 15.5417 17.125 16.125C16.5417 16.7083 15.8333 17 15 17ZM14 24V20.925C12.2667 20.6917 10.8333 19.9167 9.7 18.6C8.56667 17.2833 8 15.75 8 14H10C10 15.3833 10.4877 16.5627 11.463 17.538C12.4383 18.5133 13.6173 19.0007 15 19C16.3833 19 17.5627 18.5123 18.538 17.537C19.5133 16.5617 20.0007 15.3827 20 14H22C22 15.75 21.4333 17.2833 20.3 18.6C19.1667 19.9167 17.7333 20.6917 16 20.925V24H14Z" fill="white"/>
<defs>
<linearGradient id="paint0_linear_2308_1400" x1="15" y1="0" x2="15" y2="30" gradientUnits="userSpaceOnUse">
<stop stop-color="#6690E1"/>
<stop offset="1" stop-color="#043BA8"/>
</linearGradient>
</defs>
</svg>
