<svg width="109" height="30" viewBox="0 0 109 30" fill="none" xmlns="http://www.w3.org/2000/svg">
<g clip-path="url(#clip0_14878_75017)">
<path d="M35.4972 11.5929V9.81812H43.8594V11.5929H40.7422V19.9999H38.6143V11.5929H35.4972ZM44.4038 19.9999V12.3635H46.457V13.6959H46.5366C46.6758 13.222 46.9094 12.864 47.2376 12.6221C47.5657 12.3768 47.9435 12.2542 48.3711 12.2542C48.4772 12.2542 48.5915 12.2608 48.7141 12.274C48.8368 12.2873 48.9445 12.3055 49.0373 12.3287V14.208C48.9379 14.1782 48.8003 14.1517 48.6246 14.1285C48.449 14.1053 48.2882 14.0937 48.1424 14.0937C47.8308 14.0937 47.5524 14.1616 47.3072 14.2975C47.0652 14.4301 46.873 14.6157 46.7305 14.8543C46.5913 15.0929 46.5217 15.368 46.5217 15.6796V19.9999H44.4038ZM52.0911 20.1441C51.6039 20.1441 51.1697 20.0596 50.7885 19.8905C50.4074 19.7182 50.1058 19.4646 49.8837 19.1299C49.665 18.7918 49.5556 18.3709 49.5556 17.8671C49.5556 17.4428 49.6335 17.0865 49.7892 16.7982C49.945 16.5098 50.1571 16.2778 50.4256 16.1022C50.6941 15.9265 50.999 15.7939 51.3404 15.7044C51.6851 15.615 52.0463 15.552 52.4242 15.5155C52.8683 15.4691 53.2263 15.426 53.498 15.3863C53.7698 15.3432 53.967 15.2802 54.0897 15.1973C54.2123 15.1145 54.2736 14.9919 54.2736 14.8294V14.7996C54.2736 14.4847 54.1742 14.2411 53.9753 14.0688C53.7798 13.8964 53.5014 13.8103 53.1401 13.8103C52.7589 13.8103 52.4557 13.8948 52.2303 14.0638C52.0049 14.2295 51.8558 14.4383 51.7828 14.6902L49.824 14.5311C49.9235 14.0671 50.119 13.6661 50.4107 13.328C50.7024 12.9866 51.0785 12.7248 51.5392 12.5425C52.0033 12.3569 52.5402 12.2641 53.15 12.2641C53.5743 12.2641 53.9803 12.3138 54.3681 12.4133C54.7592 12.5127 55.1055 12.6668 55.4071 12.8756C55.7121 13.0844 55.9524 13.3529 56.128 13.681C56.3037 14.0058 56.3915 14.3953 56.3915 14.8493V19.9999H54.383V18.941H54.3233C54.2007 19.1796 54.0366 19.3901 53.8311 19.5723C53.6257 19.7513 53.3787 19.8922 53.0904 19.9949C52.802 20.0944 52.4689 20.1441 52.0911 20.1441ZM52.6976 18.6824C53.0092 18.6824 53.2843 18.6211 53.5229 18.4985C53.7615 18.3725 53.9488 18.2035 54.0847 17.9914C54.2206 17.7793 54.2885 17.539 54.2885 17.2705V16.4601C54.2222 16.5032 54.1311 16.543 54.0151 16.5794C53.9024 16.6126 53.7748 16.6441 53.6323 16.6739C53.4898 16.7004 53.3472 16.7253 53.2047 16.7485C53.0622 16.7684 52.9329 16.7866 52.8169 16.8032C52.5684 16.8396 52.3513 16.8976 52.1657 16.9772C51.9801 17.0567 51.8359 17.1644 51.7331 17.3003C51.6304 17.4329 51.579 17.5986 51.579 17.7975C51.579 18.0858 51.6834 18.3062 51.8922 18.4587C52.1043 18.6079 52.3728 18.6824 52.6976 18.6824ZM60.1525 15.5851V19.9999H58.0346V12.3635H60.0531V13.7108H60.1426C60.3116 13.2667 60.595 12.9154 60.9927 12.6569C61.3904 12.395 61.8727 12.2641 62.4395 12.2641C62.9698 12.2641 63.4321 12.3801 63.8265 12.6121C64.2209 12.8441 64.5275 13.1756 64.7463 13.6064C64.965 14.034 65.0744 14.5444 65.0744 15.1377V19.9999H62.9565V15.5155C62.9598 15.0482 62.8405 14.6836 62.5985 14.4218C62.3566 14.1566 62.0235 14.024 61.5993 14.024C61.3142 14.024 61.0623 14.0854 60.8436 14.208C60.6281 14.3306 60.4591 14.5096 60.3365 14.7449C60.2172 14.9769 60.1558 15.257 60.1525 15.5851ZM73.0973 14.5411L71.1584 14.6604C71.1252 14.4947 71.054 14.3455 70.9446 14.213C70.8352 14.0771 70.6911 13.9694 70.5121 13.8898C70.3364 13.807 70.1259 13.7655 69.8807 13.7655C69.5526 13.7655 69.2758 13.8351 69.0504 13.9743C68.825 14.1102 68.7124 14.2925 68.7124 14.5212C68.7124 14.7035 68.7853 14.8576 68.9311 14.9836C69.0769 15.1095 69.3272 15.2106 69.6818 15.2868L71.0639 15.5652C71.8063 15.7177 72.3598 15.963 72.7244 16.301C73.089 16.6391 73.2713 17.0832 73.2713 17.6334C73.2713 18.1339 73.1238 18.5731 72.8288 18.9509C72.5372 19.3287 72.1361 19.6237 71.6257 19.8358C71.1186 20.0446 70.5336 20.149 69.8707 20.149C68.8598 20.149 68.0545 19.9386 67.4545 19.5177C66.858 19.0934 66.5083 18.5167 66.4055 17.7875L68.4886 17.6782C68.5516 17.9864 68.7041 18.2217 68.946 18.3841C69.188 18.5432 69.4979 18.6228 69.8757 18.6228C70.2469 18.6228 70.5452 18.5515 70.7706 18.409C70.9993 18.2632 71.1153 18.0759 71.1186 17.8472C71.1153 17.655 71.0341 17.4975 70.875 17.3749C70.7159 17.249 70.4706 17.1528 70.1392 17.0865L68.8168 16.8231C68.071 16.6739 67.5159 16.4154 67.1513 16.0475C66.79 15.6796 66.6094 15.2106 66.6094 14.6405C66.6094 14.15 66.742 13.7274 67.0071 13.3728C67.2756 13.0181 67.6518 12.7447 68.1357 12.5525C68.6229 12.3602 69.1929 12.2641 69.8459 12.2641C70.8104 12.2641 71.5694 12.4679 72.1229 12.8756C72.6797 13.2833 73.0045 13.8384 73.0973 14.5411ZM78.0552 20.149C77.273 20.149 76.6002 19.9833 76.0368 19.6519C75.4766 19.3171 75.0458 18.8531 74.7441 18.2598C74.4458 17.6666 74.2967 16.9838 74.2967 16.2115C74.2967 15.4294 74.4475 14.7433 74.7491 14.1533C75.054 13.56 75.4866 13.0977 76.0467 12.7662C76.6068 12.4315 77.273 12.2641 78.0453 12.2641C78.7115 12.2641 79.2948 12.3851 79.7953 12.627C80.2958 12.869 80.6918 13.2087 80.9835 13.6462C81.2752 14.0837 81.4359 14.5974 81.4657 15.1874H79.4672C79.4108 14.8062 79.2617 14.4997 79.0197 14.2677C78.7811 14.0323 78.4679 13.9147 78.0801 13.9147C77.752 13.9147 77.4653 14.0042 77.22 14.1831C76.978 14.3588 76.7891 14.6157 76.6532 14.9537C76.5173 15.2918 76.4494 15.7011 76.4494 16.1817C76.4494 16.6689 76.5157 17.0832 76.6483 17.4246C76.7842 17.766 76.9747 18.0262 77.22 18.2052C77.4653 18.3841 77.752 18.4736 78.0801 18.4736C78.322 18.4736 78.5391 18.4239 78.7314 18.3245C78.9269 18.225 79.0877 18.0809 79.2136 17.8919C79.3429 17.6997 79.4274 17.4694 79.4672 17.2009H81.4657C81.4326 17.7842 81.2735 18.298 80.9885 18.7421C80.7067 19.1829 80.3173 19.5276 79.8201 19.7762C79.323 20.0248 78.7347 20.149 78.0552 20.149ZM82.8217 19.9999V12.3635H84.875V13.6959H84.9545C85.0938 13.222 85.3274 12.864 85.6555 12.6221C85.9837 12.3768 86.3615 12.2542 86.7891 12.2542C86.8951 12.2542 87.0095 12.2608 87.1321 12.274C87.2547 12.2873 87.3625 12.3055 87.4553 12.3287V14.208C87.3558 14.1782 87.2183 14.1517 87.0426 14.1285C86.867 14.1053 86.7062 14.0937 86.5604 14.0937C86.2488 14.0937 85.9704 14.1616 85.7251 14.2975C85.4832 14.4301 85.291 14.6157 85.1484 14.8543C85.0092 15.0929 84.9396 15.368 84.9396 15.6796V19.9999H82.8217ZM88.5502 19.9999V12.3635H90.6681V19.9999H88.5502ZM89.6142 11.3792C89.2993 11.3792 89.0292 11.2748 88.8038 11.066C88.5817 10.8538 88.4707 10.6003 88.4707 10.3053C88.4707 10.0136 88.5817 9.76343 88.8038 9.55463C89.0292 9.34251 89.2993 9.23645 89.6142 9.23645C89.929 9.23645 90.1975 9.34251 90.4196 9.55463C90.6449 9.76343 90.7576 10.0136 90.7576 10.3053C90.7576 10.6003 90.6449 10.8538 90.4196 11.066C90.1975 11.2748 89.929 11.3792 89.6142 11.3792ZM92.4045 19.9999V9.81812H94.5224V13.6462H94.587C94.6798 13.4407 94.814 13.2319 94.9897 13.0198C95.1687 12.8044 95.4007 12.6254 95.6857 12.4829C95.9741 12.337 96.332 12.2641 96.7596 12.2641C97.3164 12.2641 97.8301 12.4099 98.3008 12.7016C98.7714 12.99 99.1476 13.4258 99.4293 14.0091C99.7111 14.5892 99.8519 15.3167 99.8519 16.1917C99.8519 17.0435 99.7144 17.7627 99.4393 18.3493C99.1675 18.9327 98.7963 19.3751 98.3256 19.6767C97.8583 19.975 97.3346 20.1242 96.7546 20.1242C96.3436 20.1242 95.994 20.0562 95.7056 19.9204C95.4206 19.7845 95.1869 19.6138 95.0046 19.4083C94.8223 19.1995 94.6831 18.989 94.587 18.7769H94.4925V19.9999H92.4045ZM94.4776 16.1817C94.4776 16.6358 94.5406 17.0319 94.6665 17.3699C94.7925 17.708 94.9748 17.9715 95.2134 18.1604C95.4521 18.346 95.7421 18.4388 96.0835 18.4388C96.4281 18.4388 96.7198 18.3444 96.9585 18.1554C97.1971 17.9632 97.3777 17.6981 97.5004 17.36C97.6263 17.0186 97.6893 16.6258 97.6893 16.1817C97.6893 15.7409 97.628 15.3531 97.5053 15.0184C97.3827 14.6836 97.2021 14.4218 96.9634 14.2329C96.7248 14.0439 96.4315 13.9495 96.0835 13.9495C95.7388 13.9495 95.4471 14.0406 95.2085 14.2229C94.9731 14.4052 94.7925 14.6637 94.6665 14.9985C94.5406 15.3332 94.4776 15.7276 94.4776 16.1817ZM104.745 20.149C103.96 20.149 103.284 19.99 102.717 19.6718C102.153 19.3503 101.719 18.8962 101.414 18.3096C101.109 17.7196 100.957 17.0219 100.957 16.2165C100.957 15.431 101.109 14.7416 101.414 14.1483C101.719 13.5551 102.148 13.0927 102.702 12.7613C103.259 12.4298 103.912 12.2641 104.661 12.2641C105.164 12.2641 105.633 12.3453 106.068 12.5077C106.505 12.6668 106.886 12.9071 107.211 13.2286C107.539 13.5501 107.794 13.9544 107.977 14.4417C108.159 14.9256 108.25 15.4923 108.25 16.1419V16.7236H101.802V15.4111H106.257C106.257 15.1062 106.19 14.8361 106.058 14.6008C105.925 14.3654 105.741 14.1815 105.506 14.0489C105.274 13.913 105.004 13.8451 104.695 13.8451C104.374 13.8451 104.089 13.9196 103.84 14.0688C103.595 14.2146 103.403 14.4118 103.264 14.6604C103.124 14.9057 103.053 15.1791 103.05 15.4807V16.7286C103.05 17.1064 103.119 17.4329 103.259 17.708C103.401 17.9831 103.602 18.1952 103.86 18.3444C104.119 18.4935 104.425 18.5681 104.78 18.5681C105.015 18.5681 105.231 18.5349 105.426 18.4687C105.622 18.4024 105.789 18.3029 105.928 18.1704C106.068 18.0378 106.174 17.8754 106.247 17.6831L108.205 17.8124C108.106 18.283 107.902 18.694 107.594 19.0454C107.289 19.3934 106.895 19.6651 106.411 19.8607C105.93 20.0529 105.375 20.149 104.745 20.149Z" fill="white"/>
<path d="M15 30C23.2843 30 30 23.2843 30 15C30 6.71573 23.2843 0 15 0C6.71573 0 0 6.71573 0 15C0 23.2843 6.71573 30 15 30Z" fill="url(#paint0_linear_14878_75017)"/>
<path d="M15 17C14.1667 17 13.4583 16.7083 12.875 16.125C12.2917 15.5417 12 14.8333 12 14V8C12 7.16667 12.2917 6.45833 12.875 5.875C13.4583 5.29167 14.1667 5 15 5C15.8333 5 16.5417 5.29167 17.125 5.875C17.7083 6.45833 18 7.16667 18 8V14C18 14.8333 17.7083 15.5417 17.125 16.125C16.5417 16.7083 15.8333 17 15 17ZM14 24V20.925C12.2667 20.6917 10.8333 19.9167 9.7 18.6C8.56667 17.2833 8 15.75 8 14H10C10 15.3833 10.4877 16.5627 11.463 17.538C12.4383 18.5133 13.6173 19.0007 15 19C16.3833 19 17.5627 18.5123 18.538 17.537C19.5133 16.5617 20.0007 15.3827 20 14H22C22 15.75 21.4333 17.2833 20.3 18.6C19.1667 19.9167 17.7333 20.6917 16 20.925V24H14Z" fill="#00367B"/>
</g>
<defs>
<linearGradient id="paint0_linear_14878_75017" x1="15" y1="0" x2="15" y2="30" gradientUnits="userSpaceOnUse">
<stop stop-color="white"/>
<stop offset="1" stop-color="white"/>
</linearGradient>
<clipPath id="clip0_14878_75017">
<rect width="109" height="30" fill="white"/>
</clipPath>
</defs>
</svg>
